<svg width="150" height="150" viewBox="0 0 150 150" fill="none" xmlns="http://www.w3.org/2000/svg">
<mask id="mask0_210_987" style="mask-type:alpha" maskUnits="userSpaceOnUse" x="0" y="0" width="150" height="150">
<circle cx="75" cy="75" r="75" fill="#C4C4C4"/>
</mask>
<g mask="url(#mask0_210_987)">
<path opacity="0.1" d="M190.806 94.2822C190.806 94.2822 222.845 72.1209 217.689 24.4976C212.532 -23.1257 172.46 -64.7513 132.376 -82.3306C92.291 -99.9099 60.104 -66.5192 29.0331 -58.0461C-2.03779 -49.5731 -24.5385 -69.3591 -54.505 -42.3924C-84.4716 -15.4257 -83.7942 16.3985 -70.7779 42.834C-57.7616 69.2695 -34.8551 85.0444 -21.9387 107.907C-9.02227 130.769 6.84982 164.191 45.9415 186.266C85.0332 208.34 125.273 186.026 149.651 158.949C174.028 131.873 172.35 109.182 190.806 94.2822Z" fill="#34A853"/>
<path opacity="0.1" d="M196.34 -15.1038C196.34 -15.1038 199.221 -53.9535 158.927 -79.8559C118.633 -105.758 61.0729 -100.725 22.2154 -80.5781C-16.642 -60.431 -10.879 -14.4122 -23.8033 15.0862C-36.7276 44.5846 -66.2568 49.6637 -64.0976 89.9196C-61.9385 130.175 -36.7507 149.639 -8.00527 156.116C20.7401 162.594 47.4032 154.679 73.3056 158.99C99.208 163.301 135.184 171.945 176.915 155.394C218.646 138.843 226.561 93.5156 220.805 57.5397C215.05 21.5637 196.34 8.61638 196.34 -15.1038Z" fill="#34A853"/>
<path d="M75.4893 69.4591V-0.871522H102.252V-30.4622" stroke="#181E08" stroke-miterlimit="10"/>
<path d="M77.4863 80.6696H200.705V63.1504H224.256" stroke="#181E08" stroke-miterlimit="10"/>
<path d="M71.4472 80.0627H-45.7244V61.3447H-71.0889" stroke="#181E08" stroke-miterlimit="10"/>
<path d="M51.5149 -49.1877V-22.6092H36.416V-5.70465H55.1416V51.0716" stroke="#181E08" stroke-miterlimit="10"/>
<path d="M134.263 29.326V-8.72459H144.528V-25.0298H152.988" stroke="#181E08" stroke-miterlimit="10"/>
<path d="M9.84569 25.707V-3.28425L1.38574 -11.7442V-32.8826" stroke="#181E08" stroke-miterlimit="10"/>
<path d="M55.114 123.921V139.627H44.8483V157.146H15.25" stroke="#181E08" stroke-miterlimit="10"/>
<path d="M85.4834 135.517V151.822H109.034V145.183H115.681V159.068H136.22" stroke="#181E08" stroke-miterlimit="10"/>
<path d="M75.7349 17.585C67.5439 25.2688 46.5362 32.9527 22.0938 49.3117C22.0938 49.3117 23.6305 104.636 75.7349 134.841V17.585Z" fill="#34A853" stroke="#181E08" stroke-linecap="round" stroke-linejoin="round"/>
<path d="M75.7354 17.585C83.9341 25.2688 104.934 32.9527 129.384 49.3117C129.384 49.3117 127.847 104.636 75.7354 134.841V17.585Z" fill="#181E08" stroke="#181E08" stroke-linecap="round" stroke-linejoin="round"/>
<path d="M75.7344 22.2954C65.8222 29.1648 48.6948 35.7038 26.0273 50.8718C26.0273 50.8718 27.4489 102.123 75.7344 130.139C124.028 102.123 125.449 50.8718 125.449 50.8718C102.782 35.7038 85.7081 29.1648 75.7344 22.2954Z" fill="#181E08" stroke="#181E08" stroke-linecap="round" stroke-linejoin="round"/>
<path d="M125.45 50.8718C102.783 35.7115 85.709 29.1648 75.7354 22.2954V130.139C124.029 102.123 125.45 50.8718 125.45 50.8718Z" fill="#34A853" stroke="#181E08" stroke-linecap="round" stroke-linejoin="round"/>
<path d="M166.65 78.0034H-15.6729V89.8059H166.65V78.0034Z" fill="#181E08" stroke="#181E08" stroke-linecap="round" stroke-linejoin="round"/>
<path d="M2.28505 79.8782C2.28963 80.1208 2.22189 80.3592 2.09046 80.5632C1.95903 80.7671 1.76986 80.9273 1.54706 81.0233C1.32425 81.1193 1.07791 81.1468 0.839413 81.1023C0.600921 81.0578 0.381075 80.9433 0.207899 80.7734C0.0347221 80.6035 -0.0839447 80.3858 -0.132984 80.1482C-0.182024 79.9106 -0.159209 79.6638 -0.0674552 79.4392C0.0242991 79.2146 0.180839 79.0225 0.382221 78.8872C0.583604 78.7519 0.82071 78.6796 1.06332 78.6795C1.22239 78.6775 1.38028 78.707 1.52792 78.7662C1.67556 78.8254 1.81003 78.9133 1.92358 79.0247C2.03713 79.1361 2.12753 79.2689 2.18957 79.4154C2.25161 79.5618 2.28405 79.7192 2.28505 79.8782V79.8782Z" fill="white"/>
<path d="M0.355469 80.5391C0.490305 80.6786 0.663385 80.7751 0.852935 80.8164C1.04249 80.8578 1.24004 80.8422 1.42074 80.7716C1.60143 80.7009 1.7572 80.5784 1.86844 80.4195C1.97969 80.2605 2.04144 80.0722 2.04592 79.8783C2.04332 79.6476 1.95577 79.426 1.80003 79.2559C1.29001 79.6504 0.80738 80.0791 0.355469 80.5391V80.5391Z" fill="#181E08"/>
<path d="M7.07119 79.8782C7.07576 80.1208 7.00803 80.3592 6.87659 80.5632C6.74516 80.7671 6.55599 80.9273 6.33319 81.0233C6.11039 81.1193 5.86404 81.1468 5.62555 81.1023C5.38705 81.0578 5.16722 80.9433 4.99404 80.7734C4.82087 80.6035 4.70219 80.3858 4.65315 80.1482C4.60411 79.9106 4.62692 79.6638 4.71868 79.4392C4.81043 79.2146 4.96697 79.0225 5.16835 78.8872C5.36974 78.7519 5.60684 78.6796 5.84945 78.6795C6.00852 78.6775 6.16641 78.707 6.31405 78.7662C6.46169 78.8254 6.59616 78.9133 6.70971 79.0247C6.82327 79.1361 6.91366 79.2689 6.9757 79.4154C7.03774 79.5618 7.07019 79.7192 7.07119 79.8782V79.8782Z" fill="white"/>
<path d="M5.12012 80.5391C5.2121 80.6335 5.32199 80.7087 5.44338 80.7601C5.56476 80.8116 5.69519 80.8383 5.82703 80.8387C5.95482 80.8408 6.08175 80.8175 6.20049 80.7702C6.31923 80.723 6.42744 80.6527 6.51887 80.5634C6.61031 80.4741 6.68316 80.3676 6.73322 80.25C6.78329 80.1324 6.80957 80.0061 6.81057 79.8783C6.80797 79.6476 6.72043 79.426 6.56469 79.2559C6.05631 79.6524 5.57379 80.081 5.12012 80.5391Z" fill="#181E08"/>
<path d="M11.8583 79.8782C11.8629 80.1208 11.7951 80.3592 11.6637 80.5632C11.5323 80.7671 11.3431 80.9273 11.1203 81.0233C10.8975 81.1193 10.6512 81.1468 10.4127 81.1023C10.1742 81.0578 9.95432 80.9433 9.78114 80.7734C9.60797 80.6035 9.4893 80.3858 9.44026 80.1482C9.39122 79.9106 9.41402 79.6638 9.50578 79.4392C9.59753 79.2146 9.75408 79.0225 9.95547 78.8872C10.1568 78.7519 10.3939 78.6796 10.6366 78.6795C10.7956 78.6775 10.9535 78.707 11.1012 78.7662C11.2488 78.8254 11.3833 78.9133 11.4968 79.0247C11.6104 79.1361 11.7008 79.2689 11.7628 79.4154C11.8248 79.5618 11.8573 79.7192 11.8583 79.8782V79.8782Z" fill="white"/>
<path d="M9.9375 80.5391C10.0713 80.6797 10.2439 80.7772 10.4334 80.8192C10.6229 80.8611 10.8205 80.8457 11.0012 80.7748C11.1818 80.7038 11.3372 80.5806 11.4475 80.4209C11.5578 80.2613 11.6179 80.0723 11.6203 79.8783C11.6177 79.6476 11.5301 79.426 11.3744 79.2559C10.8668 79.6504 10.3867 80.0791 9.9375 80.5391V80.5391Z" fill="#181E08"/>
<path d="M16.646 79.8782C16.6521 80.1226 16.5852 80.3633 16.4539 80.5694C16.3226 80.7756 16.1327 80.938 15.9087 81.0357C15.6847 81.1335 15.4366 81.1623 15.1961 81.1184C14.9556 81.0745 14.7337 80.9599 14.5587 80.7892C14.3836 80.6186 14.2635 80.3996 14.2135 80.1603C14.1635 79.9211 14.186 79.6723 14.2781 79.4459C14.3701 79.2194 14.5276 79.0256 14.7304 78.8891C14.9332 78.7526 15.1721 78.6796 15.4165 78.6795C15.576 78.6775 15.7342 78.7069 15.8823 78.7661C16.0304 78.8252 16.1654 78.9129 16.2795 79.0242C16.3937 79.1355 16.4848 79.2683 16.5477 79.4148C16.6106 79.5613 16.644 79.7188 16.646 79.8782V79.8782Z" fill="white"/>
<path d="M14.7236 80.5391C14.8574 80.6797 15.0301 80.7772 15.2195 80.8192C15.409 80.8611 15.6067 80.8457 15.7873 80.7748C15.968 80.7038 16.1233 80.5806 16.2336 80.4209C16.3439 80.2613 16.4041 80.0723 16.4064 79.8783C16.4038 79.6476 16.3163 79.426 16.1605 79.2559C15.6545 79.6523 15.1746 80.081 14.7236 80.5391Z" fill="#181E08"/>
<path d="M21.4403 79.8782C21.4449 80.1208 21.3772 80.3592 21.2457 80.5632C21.1143 80.7671 20.9251 80.9273 20.7023 81.0233C20.4795 81.1193 20.2332 81.1468 19.9947 81.1023C19.7562 81.0578 19.5364 80.9433 19.3632 80.7734C19.19 80.6035 19.0713 80.3858 19.0223 80.1482C18.9733 79.9106 18.9961 79.6638 19.0878 79.4392C19.1796 79.2146 19.3361 79.0225 19.5375 78.8872C19.7389 78.7519 19.976 78.6796 20.2186 78.6795C20.3777 78.6775 20.5356 78.707 20.6832 78.7662C20.8308 78.8254 20.9653 78.9133 21.0788 79.0247C21.1924 79.1361 21.2828 79.2689 21.3448 79.4154C21.4069 79.5618 21.4393 79.7192 21.4403 79.8782V79.8782Z" fill="white"/>
<path d="M19.5117 80.5391C19.6034 80.6339 19.7133 80.7093 19.8347 80.7607C19.9562 80.8122 20.0867 80.8388 20.2186 80.8387C20.3458 80.8398 20.4719 80.8157 20.5897 80.768C20.7076 80.7203 20.8149 80.6498 20.9055 80.5606C20.9961 80.4714 21.0683 80.3653 21.1179 80.2482C21.1674 80.1311 21.1935 80.0054 21.1945 79.8783C21.1949 79.647 21.1069 79.4244 20.9486 79.2559C20.4426 79.6523 19.9627 80.081 19.5117 80.5391V80.5391Z" fill="#181E08"/>
<path d="M26.2274 79.8782C26.232 80.1208 26.1643 80.3592 26.0328 80.5632C25.9014 80.7671 25.7122 80.9273 25.4894 81.0233C25.2666 81.1193 25.0203 81.1468 24.7818 81.1023C24.5433 81.0578 24.3235 80.9433 24.1503 80.7734C23.9771 80.6035 23.8584 80.3858 23.8094 80.1482C23.7604 79.9106 23.7832 79.6638 23.8749 79.4392C23.9667 79.2146 24.1232 79.0225 24.3246 78.8872C24.526 78.7519 24.7631 78.6796 25.0057 78.6795C25.1648 78.6775 25.3227 78.707 25.4703 78.7662C25.6179 78.8254 25.7524 78.9133 25.866 79.0247C25.9795 79.1361 26.0699 79.2689 26.132 79.4154C26.194 79.5618 26.2264 79.7192 26.2274 79.8782V79.8782Z" fill="white"/>
<path d="M24.3291 80.5391C24.4639 80.6786 24.637 80.7751 24.8266 80.8164C25.0161 80.8578 25.2137 80.8422 25.3944 80.7716C25.5751 80.7009 25.7308 80.5784 25.8421 80.4195C25.9533 80.2605 26.0151 80.0722 26.0196 79.8783C26.017 79.6476 25.9294 79.426 25.7737 79.2559C25.2653 79.6524 24.7828 80.081 24.3291 80.5391V80.5391Z" fill="#181E08"/>
<path d="M31.0145 79.8782C31.0191 80.1208 30.9514 80.3592 30.82 80.5632C30.6885 80.7671 30.4993 80.9273 30.2765 81.0233C30.0537 81.1193 29.8074 81.1468 29.5689 81.1023C29.3304 81.0578 29.1106 80.9433 28.9374 80.7734C28.7642 80.6035 28.6455 80.3858 28.5965 80.1482C28.5475 79.9106 28.5703 79.6638 28.662 79.4392C28.7538 79.2146 28.9103 79.0225 29.1117 78.8872C29.3131 78.7519 29.5502 78.6796 29.7928 78.6795C29.9519 78.6775 30.1098 78.707 30.2574 78.7662C30.4051 78.8254 30.5395 78.9133 30.6531 79.0247C30.7666 79.1361 30.857 79.2689 30.9191 79.4154C30.9811 79.5618 31.0135 79.7192 31.0145 79.8782V79.8782Z" fill="white"/>
<path d="M29.0859 80.5391C29.1779 80.6335 29.2878 80.7087 29.4092 80.7601C29.5306 80.8116 29.661 80.8383 29.7929 80.8387C29.9206 80.8408 30.0476 80.8175 30.1663 80.7702C30.285 80.723 30.3932 80.6527 30.4847 80.5634C30.5761 80.4741 30.649 80.3676 30.699 80.25C30.7491 80.1324 30.7754 80.0061 30.7764 79.8783C30.7738 79.6476 30.6863 79.426 30.5305 79.2559C30.0221 79.6524 29.5396 80.081 29.0859 80.5391Z" fill="#181E08"/>
<path d="M35.8016 79.8782C35.8062 80.1208 35.7385 80.3592 35.6071 80.5632C35.4756 80.7671 35.2865 80.9273 35.0636 81.0233C34.8408 81.1193 34.5945 81.1468 34.356 81.1023C34.1175 81.0578 33.8977 80.9433 33.7245 80.7734C33.5513 80.6035 33.4327 80.3858 33.3836 80.1482C33.3346 79.9106 33.3574 79.6638 33.4491 79.4392C33.5409 79.2146 33.6974 79.0225 33.8988 78.8872C34.1002 78.7519 34.3373 78.6796 34.5799 78.6795C34.739 78.6775 34.8969 78.707 35.0445 78.7662C35.1922 78.8254 35.3266 78.9133 35.4402 79.0247C35.5537 79.1361 35.6441 79.2689 35.7062 79.4154C35.7682 79.5618 35.8006 79.7192 35.8016 79.8782V79.8782Z" fill="white"/>
<path d="M33.8809 80.5391C34.0146 80.6797 34.1873 80.7772 34.3768 80.8192C34.5662 80.8611 34.7639 80.8457 34.9445 80.7748C35.1252 80.7038 35.2806 80.5806 35.3908 80.4209C35.5011 80.2613 35.5613 80.0723 35.5636 79.8783C35.561 79.6476 35.4735 79.426 35.3178 79.2559C34.8118 79.6523 34.3318 80.081 33.8809 80.5391V80.5391Z" fill="#181E08"/>
<path d="M40.5962 79.8782C40.6023 80.1229 40.5352 80.3639 40.4035 80.5702C40.2719 80.7766 40.0816 80.9389 39.8571 81.0365C39.6326 81.1341 39.3841 81.1624 39.1434 81.1179C38.9027 81.0733 38.6808 80.958 38.5061 80.7865C38.3314 80.6151 38.2118 80.3954 38.1627 80.1556C38.1136 79.9158 38.1372 79.6668 38.2304 79.4405C38.3237 79.2142 38.4824 79.0209 38.6862 78.8853C38.89 78.7497 39.1296 78.6781 39.3744 78.6795C39.5335 78.6775 39.6914 78.707 39.839 78.7662C39.9867 78.8254 40.1211 78.9133 40.2347 79.0247C40.3482 79.1361 40.4386 79.2689 40.5007 79.4154C40.5627 79.5618 40.5952 79.7192 40.5962 79.8782V79.8782Z" fill="white"/>
<path d="M38.667 80.5391C38.8008 80.6797 38.9734 80.7772 39.1629 80.8192C39.3523 80.8611 39.55 80.8457 39.7307 80.7748C39.9113 80.7038 40.0667 80.5806 40.177 80.4209C40.2872 80.2613 40.3474 80.0723 40.3498 79.8783C40.3502 79.647 40.2622 79.4244 40.1039 79.2559C39.5979 79.6523 39.1179 80.081 38.667 80.5391Z" fill="#181E08"/>
<path d="M45.3837 79.8782C45.3883 80.1208 45.3205 80.3592 45.1891 80.5632C45.0577 80.7671 44.8685 80.9273 44.6457 81.0233C44.4229 81.1193 44.1765 81.1468 43.938 81.1023C43.6996 81.0578 43.4797 80.9433 43.3065 80.7734C43.1334 80.6035 43.0147 80.3858 42.9656 80.1482C42.9166 79.9106 42.9394 79.6638 43.0312 79.4392C43.1229 79.2146 43.2795 79.0225 43.4809 78.8872C43.6822 78.7519 43.9193 78.6796 44.162 78.6795C44.321 78.6775 44.4789 78.707 44.6266 78.7662C44.7742 78.8254 44.9087 78.9133 45.0222 79.0247C45.1358 79.1361 45.2262 79.2689 45.2882 79.4154C45.3502 79.5618 45.3827 79.7192 45.3837 79.8782V79.8782Z" fill="white"/>
<path d="M43.4551 80.5391C43.5899 80.6786 43.763 80.7751 43.9525 80.8164C44.1421 80.8578 44.3397 80.8422 44.5203 80.7716C44.701 80.7009 44.8568 80.5784 44.9681 80.4195C45.0793 80.2605 45.141 80.0722 45.1455 79.8783C45.1429 79.6476 45.0554 79.426 44.8997 79.2559C44.3896 79.6504 43.907 80.0791 43.4551 80.5391Z" fill="#181E08"/>
<path d="M50.1708 79.8782C50.1754 80.1208 50.1076 80.3592 49.9762 80.5632C49.8448 80.7671 49.6556 80.9273 49.4328 81.0233C49.21 81.1193 48.9637 81.1468 48.7252 81.1023C48.4867 81.0578 48.2668 80.9433 48.0936 80.7734C47.9205 80.6035 47.8018 80.3858 47.7528 80.1482C47.7037 79.9106 47.7265 79.6638 47.8183 79.4392C47.91 79.2146 48.0666 79.0225 48.268 78.8872C48.4693 78.7519 48.7064 78.6796 48.9491 78.6795C49.1081 78.6775 49.266 78.707 49.4137 78.7662C49.5613 78.8254 49.6958 78.9133 49.8093 79.0247C49.9229 79.1361 50.0133 79.2689 50.0753 79.4154C50.1373 79.5618 50.1698 79.7192 50.1708 79.8782V79.8782Z" fill="white"/>
<path d="M48.2412 80.5391C48.3332 80.6335 48.4431 80.7087 48.5645 80.7601C48.6859 80.8116 48.8163 80.8383 48.9481 80.8387C49.0759 80.8408 49.2028 80.8175 49.3216 80.7702C49.4403 80.723 49.5485 80.6527 49.64 80.5634C49.7314 80.4741 49.8042 80.3676 49.8543 80.25C49.9044 80.1324 49.9307 80.0061 49.9317 79.8783C49.9291 79.6476 49.8415 79.426 49.6858 79.2559C49.1774 79.6524 48.6949 80.081 48.2412 80.5391Z" fill="#181E08"/>
<path d="M2.28489 87.4928C2.291 87.7357 2.22457 87.9749 2.09409 88.1798C1.96362 88.3847 1.77501 88.5461 1.55238 88.6433C1.32974 88.7405 1.08319 88.7691 0.844207 88.7255C0.605225 88.6819 0.384663 88.568 0.210711 88.3984C0.0367602 88.2289 -0.08269 88.0113 -0.132376 87.7735C-0.182062 87.5357 -0.159729 87.2885 -0.0682304 87.0634C0.0232678 86.8384 0.17978 86.6457 0.381305 86.5101C0.582831 86.3744 0.820224 86.3019 1.06315 86.3019C1.22158 86.2998 1.37886 86.329 1.526 86.3878C1.67314 86.4465 1.80727 86.5337 1.92072 86.6443C2.03417 86.7549 2.12472 86.8868 2.18721 87.0324C2.2497 87.1779 2.28288 87.3344 2.28489 87.4928V87.4928Z" fill="white"/>
<path d="M0.355469 88.1614C0.490769 88.3013 0.664542 88.3979 0.854788 88.439C1.04503 88.4801 1.2432 88.4639 1.4242 88.3923C1.60519 88.3207 1.76088 88.1971 1.87155 88.0369C1.98223 87.8768 2.04291 87.6875 2.04592 87.4929C2.04145 87.2649 1.95403 87.0464 1.80003 86.8782C1.29001 87.2727 0.80738 87.7014 0.355469 88.1614V88.1614Z" fill="#181E08"/>
<path d="M7.07199 87.4928C7.0781 87.7357 7.01168 87.9749 6.8812 88.1798C6.75072 88.3847 6.56212 88.5461 6.33949 88.6433C6.11685 88.7405 5.87029 88.7691 5.6313 88.7255C5.39232 88.6819 5.17177 88.568 4.99782 88.3984C4.82387 88.2289 4.70442 88.0113 4.65473 87.7735C4.60505 87.5357 4.62738 87.2885 4.71888 87.0634C4.81038 86.8384 4.96688 86.6457 5.1684 86.5101C5.36993 86.3744 5.60732 86.3019 5.85025 86.3019C6.00868 86.2998 6.16595 86.329 6.31309 86.3878C6.46024 86.4465 6.59437 86.5337 6.70782 86.6443C6.82127 86.7549 6.91182 86.8868 6.97431 87.0324C7.03679 87.1779 7.06998 87.3344 7.07199 87.4928V87.4928Z" fill="white"/>
<path d="M5.12012 88.1614C5.2121 88.2558 5.32199 88.331 5.44338 88.3824C5.56476 88.4339 5.69519 88.4606 5.82703 88.4611C5.95519 88.4621 6.08228 88.4378 6.20106 88.3897C6.31985 88.3416 6.428 88.2706 6.51933 88.1807C6.61066 88.0908 6.68339 87.9838 6.73336 87.8657C6.78333 87.7477 6.80956 87.621 6.81057 87.4929C6.8061 87.2649 6.71869 87.0464 6.56469 86.8782C6.05631 87.2747 5.57379 87.7033 5.12012 88.1614Z" fill="#181E08"/>
<path d="M11.8581 87.4928C11.8642 87.7357 11.7978 87.9749 11.6673 88.1798C11.5369 88.3847 11.3483 88.5461 11.1256 88.6433C10.903 88.7405 10.6564 88.7691 10.4174 88.7255C10.1785 88.6819 9.9579 88.568 9.78395 88.3984C9.61 88.2289 9.49055 88.0113 9.44087 87.7735C9.39118 87.5357 9.41351 87.2885 9.50501 87.0634C9.59651 86.8384 9.75302 86.6457 9.95455 86.5101C10.1561 86.3744 10.3935 86.3019 10.6364 86.3019C10.7948 86.2998 10.9521 86.329 11.0992 86.3878C11.2464 86.4465 11.3805 86.5337 11.494 86.6443C11.6074 86.7549 11.698 86.8868 11.7604 87.0324C11.8229 87.1779 11.8561 87.3344 11.8581 87.4928V87.4928Z" fill="white"/>
<path d="M9.9375 88.1614C10.0275 88.2563 10.1359 88.3319 10.2562 88.3834C10.3764 88.4349 10.5059 88.4614 10.6367 88.4611C10.7649 88.4621 10.892 88.4378 11.0108 88.3897C11.1295 88.3416 11.2377 88.2706 11.329 88.1807C11.4204 88.0908 11.4931 87.9838 11.5431 87.8657C11.593 87.7477 11.6193 87.621 11.6203 87.4929C11.6158 87.2649 11.5284 87.0464 11.3744 86.8782C10.8668 87.2727 10.3867 87.7014 9.9375 88.1614V88.1614Z" fill="#181E08"/>
<path d="M16.6457 87.4929C16.6534 87.7375 16.5878 87.9789 16.4575 88.186C16.3271 88.3932 16.1379 88.5567 15.914 88.6557C15.6902 88.7547 15.4419 88.7846 15.2009 88.7416C14.9599 88.6986 14.7373 88.5846 14.5615 88.4143C14.3857 88.244 14.2647 88.0251 14.2141 87.7856C14.1635 87.5461 14.1855 87.297 14.2773 87.0701C14.3691 86.8432 14.5265 86.6489 14.7295 86.512C14.9324 86.3752 15.1716 86.302 15.4163 86.3019C15.737 86.2977 16.0463 86.4207 16.2766 86.6438C16.507 86.867 16.6397 87.1722 16.6457 87.4929V87.4929Z" fill="white"/>
<path d="M14.7236 88.1614C14.8136 88.2563 14.9221 88.3319 15.0423 88.3834C15.1626 88.4349 15.2921 88.4614 15.4229 88.4611C15.551 88.4621 15.6781 88.4378 15.7969 88.3897C15.9157 88.3416 16.0238 88.2706 16.1152 88.1807C16.2065 88.0908 16.2792 87.9838 16.3292 87.8657C16.3792 87.7477 16.4054 87.621 16.4064 87.4929C16.4019 87.2649 16.3145 87.0464 16.1605 86.8782C15.6545 87.2747 15.1746 87.7033 14.7236 88.1614Z" fill="#181E08"/>
<path d="M21.4402 87.4928C21.4463 87.7357 21.3798 87.9749 21.2494 88.1798C21.1189 88.3847 20.9303 88.5461 20.7077 88.6433C20.485 88.7405 20.2385 88.7691 19.9995 88.7255C19.7605 88.6819 19.5399 88.568 19.366 88.3984C19.192 88.2289 19.0726 88.0113 19.0229 87.7735C18.9732 87.5357 18.9955 87.2885 19.087 87.0634C19.1785 86.8384 19.3351 86.6457 19.5366 86.5101C19.7381 86.3744 19.9755 86.3019 20.2184 86.3019C20.3768 86.2998 20.5341 86.329 20.6813 86.3878C20.8284 86.4465 20.9625 86.5337 21.076 86.6443C21.1894 86.7549 21.28 86.8868 21.3425 87.0324C21.405 87.1779 21.4382 87.3344 21.4402 87.4928V87.4928Z" fill="white"/>
<path d="M19.5117 88.1614C19.6459 88.3024 19.8193 88.4001 20.0095 88.4418C20.1997 88.4836 20.398 88.4675 20.5789 88.3956C20.7599 88.3237 20.9152 88.1993 21.0249 88.0384C21.1346 87.8776 21.1936 87.6876 21.1945 87.4929C21.1937 87.2642 21.1058 87.0443 20.9486 86.8782C20.4426 87.2747 19.9627 87.7033 19.5117 88.1614V88.1614Z" fill="#181E08"/>
<path d="M26.2282 87.4928C26.2344 87.7357 26.1679 87.9749 26.0375 88.1798C25.907 88.3847 25.7184 88.5461 25.4957 88.6433C25.2731 88.7405 25.0265 88.7691 24.7876 88.7255C24.5486 88.6819 24.328 88.568 24.1541 88.3984C23.9801 88.2289 23.8607 88.0113 23.811 87.7735C23.7613 87.5357 23.7836 87.2885 23.8751 87.0634C23.9666 86.8384 24.1231 86.6457 24.3247 86.5101C24.5262 86.3744 24.7636 86.3019 25.0065 86.3019C25.1649 86.2998 25.3222 86.329 25.4694 86.3878C25.6165 86.4465 25.7506 86.5337 25.8641 86.6443C25.9775 86.7549 26.0681 86.8868 26.1306 87.0324C26.193 87.1779 26.2262 87.3344 26.2282 87.4928V87.4928Z" fill="white"/>
<path d="M24.3291 88.1614C24.4644 88.3013 24.6382 88.3979 24.8284 88.439C25.0187 88.4801 25.2168 88.4639 25.3978 88.3923C25.5788 88.3207 25.7345 88.1971 25.8452 88.0369C25.9559 87.8768 26.0165 87.6875 26.0196 87.4929C26.0151 87.2649 25.9277 87.0464 25.7737 86.8782C25.2653 87.2747 24.7828 87.7033 24.3291 88.1614Z" fill="#181E08"/>
<path d="M31.0144 87.4928C31.0205 87.7357 30.9541 87.9749 30.8236 88.1798C30.6931 88.3847 30.5045 88.5461 30.2819 88.6433C30.0592 88.7405 29.8127 88.7691 29.5737 88.7255C29.3347 88.6819 29.1142 88.568 28.9402 88.3984C28.7663 88.2289 28.6468 88.0113 28.5971 87.7735C28.5474 87.5357 28.5698 87.2885 28.6613 87.0634C28.7528 86.8384 28.9093 86.6457 29.1108 86.5101C29.3123 86.3744 29.5497 86.3019 29.7926 86.3019C29.9511 86.2998 30.1083 86.329 30.2555 86.3878C30.4026 86.4465 30.5368 86.5337 30.6502 86.6443C30.7637 86.7549 30.8542 86.8868 30.9167 87.0324C30.9792 87.1779 31.0124 87.3344 31.0144 87.4928V87.4928Z" fill="white"/>
<path d="M29.0859 88.1614C29.1779 88.2558 29.2878 88.331 29.4092 88.3824C29.5306 88.4339 29.661 88.4606 29.7929 88.4611C29.921 88.4621 30.0481 88.4378 30.1669 88.3897C30.2857 88.3416 30.3938 88.2706 30.4851 88.1807C30.5765 88.0908 30.6492 87.9838 30.6992 87.8657C30.7491 87.7477 30.7754 87.621 30.7764 87.4929C30.7719 87.2649 30.6845 87.0464 30.5305 86.8782C30.0221 87.2747 29.5396 87.7033 29.0859 88.1614V88.1614Z" fill="#181E08"/>
<path d="M35.8015 87.4928C35.8076 87.7357 35.7412 87.9749 35.6107 88.1798C35.4802 88.3847 35.2916 88.5461 35.069 88.6433C34.8463 88.7405 34.5998 88.7691 34.3608 88.7255C34.1218 88.6819 33.9013 88.568 33.7273 88.3984C33.5534 88.2289 33.4339 88.0113 33.3842 87.7735C33.3345 87.5357 33.3569 87.2885 33.4484 87.0634C33.5399 86.8384 33.6964 86.6457 33.8979 86.5101C34.0994 86.3744 34.3368 86.3019 34.5797 86.3019C34.7382 86.2998 34.8954 86.329 35.0426 86.3878C35.1897 86.4465 35.3239 86.5337 35.4373 86.6443C35.5508 86.7549 35.6413 86.8868 35.7038 87.0324C35.7663 87.1779 35.7995 87.3344 35.8015 87.4928V87.4928Z" fill="white"/>
<path d="M33.8809 88.1614C33.9709 88.2563 34.0793 88.3319 34.1995 88.3834C34.3198 88.4349 34.4493 88.4614 34.5801 88.4611C34.7082 88.4621 34.8354 88.4378 34.9541 88.3897C35.0729 88.3416 35.1811 88.2706 35.2724 88.1807C35.3637 88.0908 35.4365 87.9838 35.4864 87.8657C35.5364 87.7477 35.5626 87.621 35.5636 87.4929C35.5592 87.2649 35.4718 87.0464 35.3178 86.8782C34.8118 87.2747 34.3318 87.7033 33.8809 88.1614V88.1614Z" fill="#181E08"/>
<path d="M40.5959 87.4928C40.6036 87.7378 40.5379 87.9795 40.4072 88.1868C40.2765 88.3942 40.0868 88.5577 39.8625 88.6565C39.6381 88.7552 39.3894 88.7847 39.1482 88.741C38.9071 88.6974 38.6844 88.5827 38.5089 88.4116C38.3334 88.2405 38.2131 88.0209 38.1633 87.7809C38.1135 87.5409 38.1366 87.2915 38.2297 87.0647C38.3227 86.838 38.4813 86.6442 38.6852 86.5082C38.8892 86.3723 39.1291 86.3004 39.3742 86.3019C39.5326 86.2998 39.6899 86.329 39.837 86.3878C39.9842 86.4465 40.1183 86.5337 40.2318 86.6443C40.3452 86.7549 40.4358 86.8868 40.4983 87.0324C40.5607 87.1779 40.5939 87.3344 40.5959 87.4928V87.4928Z" fill="white"/>
<path d="M38.667 88.1614C38.8012 88.3024 38.9746 88.4001 39.1647 88.4418C39.3549 88.4836 39.5532 88.4675 39.7342 88.3956C39.9151 88.3237 40.0705 88.1993 40.1802 88.0384C40.2899 87.8776 40.3489 87.6876 40.3498 87.4929C40.349 87.2642 40.261 87.0443 40.1039 86.8782C39.5979 87.2747 39.1179 87.7033 38.667 88.1614V88.1614Z" fill="#181E08"/>
<path d="M45.3835 87.4928C45.3896 87.7357 45.3232 87.9749 45.1927 88.1798C45.0622 88.3847 44.8736 88.5461 44.651 88.6433C44.4284 88.7405 44.1818 88.7691 43.9428 88.7255C43.7038 88.6819 43.4833 88.568 43.3093 88.3984C43.1354 88.2289 43.0159 88.0113 42.9663 87.7735C42.9166 87.5357 42.9389 87.2885 43.0304 87.0634C43.1219 86.8384 43.2784 86.6457 43.4799 86.5101C43.6815 86.3744 43.9188 86.3019 44.1618 86.3019C44.3202 86.2998 44.4775 86.329 44.6246 86.3878C44.7718 86.4465 44.9059 86.5337 45.0193 86.6443C45.1328 86.7549 45.2233 86.8868 45.2858 87.0324C45.3483 87.1779 45.3815 87.3344 45.3835 87.4928V87.4928Z" fill="white"/>
<path d="M43.4551 88.1614C43.5904 88.3013 43.7642 88.3979 43.9544 88.439C44.1446 88.4801 44.3428 88.4639 44.5238 88.3923C44.7048 88.3207 44.8605 88.1971 44.9712 88.0369C45.0818 87.8768 45.1425 87.6875 45.1455 87.4929C45.1411 87.2649 45.0537 87.0464 44.8997 86.8782C44.3896 87.2727 43.907 87.7014 43.4551 88.1614Z" fill="#181E08"/>
<path d="M50.1706 87.4928C50.1767 87.7357 50.1103 87.9749 49.9798 88.1798C49.8494 88.3847 49.6608 88.5461 49.4381 88.6433C49.2155 88.7405 48.9689 88.7691 48.7299 88.7255C48.491 88.6819 48.2704 88.568 48.0965 88.3984C47.9225 88.2289 47.8031 88.0113 47.7534 87.7735C47.7037 87.5357 47.726 87.2885 47.8175 87.0634C47.909 86.8384 48.0655 86.6457 48.267 86.5101C48.4686 86.3744 48.706 86.3019 48.9489 86.3019C49.1073 86.2998 49.2646 86.329 49.4117 86.3878C49.5589 86.4465 49.693 86.5337 49.8065 86.6443C49.9199 86.7549 50.0105 86.8868 50.0729 87.0324C50.1354 87.1779 50.1686 87.3344 50.1706 87.4928V87.4928Z" fill="white"/>
<path d="M48.2412 88.1614C48.3332 88.2558 48.4431 88.331 48.5645 88.3824C48.6859 88.4339 48.8163 88.4606 48.9481 88.4611C49.0763 88.4621 49.2034 88.4378 49.3222 88.3897C49.441 88.3416 49.5491 88.2706 49.6404 88.1807C49.7318 88.0908 49.8045 87.9838 49.8545 87.8657C49.9044 87.7477 49.9307 87.621 49.9317 87.4929C49.9272 87.2649 49.8398 87.0464 49.6858 86.8782C49.1774 87.2747 48.6949 87.7033 48.2412 88.1614V88.1614Z" fill="#181E08"/>
<path d="M103.228 79.8782C103.233 80.1208 103.165 80.3592 103.034 80.5632C102.902 80.7671 102.713 80.9273 102.49 81.0233C102.268 81.1193 102.021 81.1468 101.783 81.1023C101.544 81.0578 101.324 80.9433 101.151 80.7734C100.978 80.6035 100.859 80.3858 100.81 80.1482C100.761 79.9106 100.784 79.6638 100.876 79.4392C100.968 79.2146 101.124 79.0225 101.326 78.8872C101.527 78.7519 101.764 78.6796 102.007 78.6795C102.166 78.6775 102.324 78.707 102.471 78.7662C102.619 78.8254 102.753 78.9133 102.867 79.0247C102.98 79.1361 103.071 79.2689 103.133 79.4154C103.195 79.5618 103.227 79.7192 103.228 79.8782V79.8782Z" fill="white"/>
<path d="M101.308 80.5391C101.441 80.6797 101.614 80.7772 101.804 80.8192C101.993 80.8611 102.191 80.8457 102.371 80.7748C102.552 80.7038 102.707 80.5806 102.818 80.4209C102.928 80.2613 102.988 80.0723 102.99 79.8783C102.988 79.6476 102.9 79.426 102.744 79.2559C102.239 79.6523 101.759 80.081 101.308 80.5391V80.5391Z" fill="#181E08"/>
<path d="M108.023 79.8782C108.029 80.1229 107.962 80.3639 107.83 80.5702C107.699 80.7766 107.508 80.9389 107.284 81.0365C107.059 81.1341 106.811 81.1624 106.57 81.1179C106.33 81.0733 106.108 80.958 105.933 80.7865C105.758 80.6151 105.639 80.3954 105.589 80.1556C105.54 79.9158 105.564 79.6668 105.657 79.4405C105.75 79.2142 105.909 79.0209 106.113 78.8853C106.317 78.7497 106.556 78.6781 106.801 78.6795C106.96 78.6775 107.118 78.707 107.266 78.7662C107.413 78.8254 107.548 78.9133 107.661 79.0247C107.775 79.1361 107.865 79.2689 107.927 79.4154C107.989 79.5618 108.022 79.7192 108.023 79.8782V79.8782Z" fill="white"/>
<path d="M106.094 80.5391C106.228 80.6797 106.4 80.7772 106.59 80.8192C106.779 80.8611 106.977 80.8457 107.157 80.7748C107.338 80.7038 107.493 80.5806 107.604 80.4209C107.714 80.2613 107.774 80.0723 107.777 79.8783C107.777 79.647 107.689 79.4244 107.531 79.2559C107.025 79.6523 106.545 80.081 106.094 80.5391Z" fill="#181E08"/>
<path d="M112.808 79.8782C112.813 80.1208 112.745 80.3592 112.614 80.5632C112.482 80.7671 112.293 80.9273 112.07 81.0233C111.848 81.1193 111.601 81.1468 111.363 81.1023C111.124 81.0578 110.905 80.9433 110.731 80.7734C110.558 80.6035 110.439 80.3858 110.39 80.1482C110.341 79.9106 110.364 79.6638 110.456 79.4392C110.548 79.2146 110.704 79.0225 110.906 78.8872C111.107 78.7519 111.344 78.6796 111.587 78.6795C111.746 78.6775 111.904 78.707 112.051 78.7662C112.199 78.8254 112.333 78.9133 112.447 79.0247C112.561 79.1361 112.651 79.2689 112.713 79.4154C112.775 79.5618 112.807 79.7192 112.808 79.8782V79.8782Z" fill="white"/>
<path d="M110.881 80.5391C111.016 80.6786 111.189 80.7751 111.378 80.8164C111.568 80.8578 111.765 80.8422 111.946 80.7716C112.127 80.7009 112.283 80.5784 112.394 80.4195C112.505 80.2605 112.567 80.0722 112.571 79.8783C112.569 79.6476 112.481 79.426 112.325 79.2559C111.815 79.6504 111.333 80.0791 110.881 80.5391Z" fill="#181E08"/>
<path d="M117.597 79.8782C117.601 80.1208 117.533 80.3592 117.402 80.5632C117.271 80.7671 117.081 80.9273 116.859 81.0233C116.636 81.1193 116.389 81.1468 116.151 81.1023C115.912 81.0578 115.693 80.9433 115.519 80.7734C115.346 80.6035 115.228 80.3858 115.179 80.1482C115.129 79.9106 115.152 79.6638 115.244 79.4392C115.336 79.2146 115.492 79.0225 115.694 78.8872C115.895 78.7519 116.132 78.6796 116.375 78.6795C116.534 78.6775 116.692 78.707 116.839 78.7662C116.987 78.8254 117.122 78.9133 117.235 79.0247C117.349 79.1361 117.439 79.2689 117.501 79.4154C117.563 79.5618 117.596 79.7192 117.597 79.8782V79.8782Z" fill="white"/>
<path d="M115.667 80.5391C115.759 80.6335 115.869 80.7087 115.99 80.7601C116.112 80.8116 116.242 80.8383 116.374 80.8387C116.502 80.8408 116.629 80.8175 116.747 80.7702C116.866 80.723 116.974 80.6527 117.066 80.5634C117.157 80.4741 117.23 80.3676 117.28 80.25C117.33 80.1324 117.356 80.0061 117.357 79.8783C117.355 79.6476 117.267 79.426 117.112 79.2559C116.603 79.6524 116.121 80.081 115.667 80.5391V80.5391Z" fill="#181E08"/>
<path d="M122.384 79.8782C122.388 80.1208 122.321 80.3592 122.189 80.5632C122.058 80.7671 121.868 80.9273 121.646 81.0233C121.423 81.1193 121.177 81.1468 120.938 81.1023C120.7 81.0578 120.48 80.9433 120.307 80.7734C120.133 80.6035 120.015 80.3858 119.966 80.1482C119.917 79.9106 119.939 79.6638 120.031 79.4392C120.123 79.2146 120.279 79.0225 120.481 78.8872C120.682 78.7519 120.919 78.6796 121.162 78.6795C121.321 78.6775 121.479 78.707 121.627 78.7662C121.774 78.8254 121.909 78.9133 122.022 79.0247C122.136 79.1361 122.226 79.2689 122.288 79.4154C122.35 79.5618 122.383 79.7192 122.384 79.8782V79.8782Z" fill="white"/>
<path d="M120.463 80.5391C120.597 80.6797 120.769 80.7772 120.959 80.8192C121.148 80.8611 121.346 80.8457 121.527 80.7748C121.707 80.7038 121.863 80.5806 121.973 80.4209C122.083 80.2613 122.143 80.0723 122.146 79.8783C122.143 79.6476 122.056 79.426 121.9 79.2559C121.392 79.6504 120.912 80.0791 120.463 80.5391Z" fill="#181E08"/>
<path d="M127.178 79.8782C127.184 80.1226 127.117 80.3633 126.986 80.5694C126.855 80.7756 126.665 80.938 126.441 81.0357C126.217 81.1335 125.969 81.1623 125.728 81.1184C125.488 81.0745 125.266 80.9599 125.091 80.7892C124.916 80.6186 124.796 80.3996 124.746 80.1603C124.696 79.9211 124.718 79.6723 124.81 79.4459C124.902 79.2194 125.06 79.0256 125.263 78.8891C125.465 78.7526 125.704 78.6796 125.949 78.6795C126.108 78.6775 126.266 78.7069 126.415 78.7661C126.563 78.8252 126.698 78.9129 126.812 79.0242C126.926 79.1355 127.017 79.2683 127.08 79.4148C127.143 79.5613 127.176 79.7188 127.178 79.8782V79.8782Z" fill="white"/>
<path d="M125.25 80.5391C125.384 80.6797 125.556 80.7772 125.746 80.8192C125.935 80.8611 126.133 80.8457 126.314 80.7748C126.494 80.7038 126.65 80.5806 126.76 80.4209C126.87 80.2613 126.93 80.0723 126.933 79.8783C126.93 79.6476 126.843 79.426 126.687 79.2559C126.181 79.6523 125.701 80.081 125.25 80.5391V80.5391Z" fill="#181E08"/>
<path d="M131.966 79.8782C131.972 80.1229 131.905 80.3639 131.774 80.5702C131.642 80.7766 131.452 80.9389 131.227 81.0365C131.003 81.1341 130.754 81.1624 130.514 81.1179C130.273 81.0733 130.051 80.958 129.876 80.7865C129.702 80.6151 129.582 80.3954 129.533 80.1556C129.484 79.9158 129.507 79.6668 129.601 79.4405C129.694 79.2142 129.853 79.0209 130.056 78.8853C130.26 78.7497 130.5 78.6781 130.745 78.6795C130.904 78.6775 131.061 78.707 131.209 78.7662C131.357 78.8254 131.491 78.9133 131.605 79.0247C131.718 79.1361 131.809 79.2689 131.871 79.4154C131.933 79.5618 131.965 79.7192 131.966 79.8782V79.8782Z" fill="white"/>
<path d="M130.037 80.5391C130.171 80.6797 130.344 80.7772 130.533 80.8192C130.722 80.8611 130.92 80.8457 131.101 80.7748C131.281 80.7038 131.437 80.5806 131.547 80.4209C131.657 80.2613 131.718 80.0723 131.72 79.8783C131.72 79.647 131.632 79.4244 131.474 79.2559C130.968 79.6523 130.488 80.081 130.037 80.5391V80.5391Z" fill="#181E08"/>
<path d="M136.752 79.8782C136.756 80.1208 136.689 80.3592 136.557 80.5632C136.426 80.7671 136.237 80.9273 136.014 81.0233C135.791 81.1193 135.545 81.1468 135.306 81.1023C135.068 81.0578 134.848 80.9433 134.675 80.7734C134.502 80.6035 134.383 80.3858 134.334 80.1482C134.285 79.9106 134.308 79.6638 134.399 79.4392C134.491 79.2146 134.648 79.0225 134.849 78.8872C135.05 78.7519 135.287 78.6796 135.53 78.6795C135.689 78.6775 135.847 78.707 135.995 78.7662C136.142 78.8254 136.277 78.9133 136.39 79.0247C136.504 79.1361 136.594 79.2689 136.656 79.4154C136.718 79.5618 136.751 79.7192 136.752 79.8782V79.8782Z" fill="white"/>
<path d="M134.823 80.5391C134.958 80.6786 135.131 80.7751 135.321 80.8164C135.51 80.8578 135.708 80.8422 135.889 80.7716C136.069 80.7009 136.225 80.5784 136.336 80.4195C136.447 80.2605 136.509 80.0722 136.514 79.8783C136.511 79.6476 136.424 79.426 136.268 79.2559C135.758 79.6504 135.275 80.0791 134.823 80.5391Z" fill="#181E08"/>
<path d="M141.54 79.8782C141.545 80.1208 141.477 80.3592 141.345 80.5632C141.214 80.7671 141.025 80.9273 140.802 81.0233C140.579 81.1193 140.333 81.1468 140.094 81.1023C139.856 81.0578 139.636 80.9433 139.463 80.7734C139.29 80.6035 139.171 80.3858 139.122 80.1482C139.073 79.9106 139.096 79.6638 139.187 79.4392C139.279 79.2146 139.436 79.0225 139.637 78.8872C139.838 78.7519 140.076 78.6796 140.318 78.6795C140.477 78.6775 140.635 78.707 140.783 78.7662C140.93 78.8254 141.065 78.9133 141.178 79.0247C141.292 79.1361 141.382 79.2689 141.444 79.4154C141.506 79.5618 141.539 79.7192 141.54 79.8782V79.8782Z" fill="white"/>
<path d="M139.588 80.5391C139.68 80.6335 139.79 80.7087 139.911 80.7601C140.033 80.8116 140.163 80.8383 140.295 80.8387C140.423 80.8408 140.55 80.8175 140.668 80.7702C140.787 80.723 140.895 80.6527 140.987 80.5634C141.078 80.4741 141.151 80.3676 141.201 80.25C141.251 80.1324 141.277 80.0061 141.278 79.8783C141.276 79.6476 141.188 79.426 141.032 79.2559C140.524 79.6524 140.042 80.081 139.588 80.5391Z" fill="#181E08"/>
<path d="M146.326 79.8782C146.331 80.1208 146.263 80.3592 146.131 80.5632C146 80.7671 145.811 80.9273 145.588 81.0233C145.365 81.1193 145.119 81.1468 144.88 81.1023C144.642 81.0578 144.422 80.9433 144.249 80.7734C144.076 80.6035 143.957 80.3858 143.908 80.1482C143.859 79.9106 143.882 79.6638 143.974 79.4392C144.065 79.2146 144.222 79.0225 144.423 78.8872C144.625 78.7519 144.862 78.6796 145.104 78.6795C145.263 78.6775 145.421 78.707 145.569 78.7662C145.717 78.8254 145.851 78.9133 145.965 79.0247C146.078 79.1361 146.169 79.2689 146.231 79.4154C146.293 79.5618 146.325 79.7192 146.326 79.8782V79.8782Z" fill="white"/>
<path d="M144.405 80.5391C144.539 80.6797 144.712 80.7772 144.901 80.8192C145.091 80.8611 145.288 80.8457 145.469 80.7748C145.65 80.7038 145.805 80.5806 145.915 80.4209C146.026 80.2613 146.086 80.0723 146.088 79.8783C146.085 79.6476 145.998 79.426 145.842 79.2559C145.335 79.6504 144.854 80.0791 144.405 80.5391Z" fill="#181E08"/>
<path d="M151.114 79.8782C151.12 80.1226 151.053 80.3633 150.922 80.5694C150.79 80.7756 150.601 80.938 150.376 81.0357C150.152 81.1335 149.904 81.1623 149.664 81.1184C149.423 81.0745 149.201 80.9599 149.026 80.7892C148.851 80.6186 148.731 80.3996 148.681 80.1603C148.631 79.9211 148.654 79.6723 148.746 79.4459C148.838 79.2194 148.995 79.0256 149.198 78.8891C149.401 78.7526 149.64 78.6796 149.884 78.6795C150.044 78.6775 150.202 78.7069 150.35 78.7661C150.498 78.8252 150.633 78.9129 150.747 79.0242C150.861 79.1355 150.953 79.2683 151.015 79.4148C151.078 79.5613 151.112 79.7188 151.114 79.8782V79.8782Z" fill="white"/>
<path d="M149.193 80.5391C149.327 80.6797 149.5 80.7772 149.689 80.8192C149.879 80.8611 150.076 80.8457 150.257 80.7748C150.438 80.7038 150.593 80.5806 150.703 80.4209C150.814 80.2613 150.874 80.0723 150.876 79.8783C150.874 79.6476 150.786 79.426 150.63 79.2559C150.124 79.6523 149.644 80.081 149.193 80.5391V80.5391Z" fill="#181E08"/>
<path d="M103.228 87.4928C103.234 87.7357 103.168 87.9749 103.037 88.1798C102.907 88.3847 102.718 88.5461 102.496 88.6433C102.273 88.7405 102.027 88.7691 101.788 88.7255C101.549 88.6819 101.328 88.568 101.154 88.3984C100.98 88.2289 100.861 88.0113 100.811 87.7735C100.761 87.5357 100.784 87.2885 100.875 87.0634C100.967 86.8384 101.123 86.6457 101.325 86.5101C101.526 86.3744 101.764 86.3019 102.007 86.3019C102.165 86.2998 102.322 86.329 102.469 86.3878C102.616 86.4465 102.751 86.5337 102.864 86.6443C102.978 86.7549 103.068 86.8868 103.131 87.0324C103.193 87.1779 103.226 87.3344 103.228 87.4928V87.4928Z" fill="white"/>
<path d="M101.308 88.1614C101.398 88.2563 101.506 88.3319 101.626 88.3834C101.747 88.4349 101.876 88.4614 102.007 88.4611C102.135 88.4621 102.262 88.4378 102.381 88.3897C102.5 88.3416 102.608 88.2706 102.699 88.1807C102.79 88.0908 102.863 87.9838 102.913 87.8657C102.963 87.7477 102.989 87.621 102.99 87.4929C102.986 87.2649 102.898 87.0464 102.744 86.8782C102.239 87.2747 101.759 87.7033 101.308 88.1614V88.1614Z" fill="#181E08"/>
<path d="M108.023 87.4928C108.03 87.7378 107.965 87.9795 107.834 88.1868C107.703 88.3942 107.514 88.5577 107.289 88.6565C107.065 88.7552 106.816 88.7847 106.575 88.741C106.334 88.6974 106.111 88.5827 105.936 88.4116C105.76 88.2405 105.64 88.0209 105.59 87.7809C105.54 87.5409 105.563 87.2915 105.656 87.0647C105.749 86.838 105.908 86.6442 106.112 86.5082C106.316 86.3723 106.556 86.3004 106.801 86.3019C106.959 86.2998 107.117 86.329 107.264 86.3878C107.411 86.4465 107.545 86.5337 107.659 86.6443C107.772 86.7549 107.863 86.8868 107.925 87.0324C107.987 87.1779 108.021 87.3344 108.023 87.4928V87.4928Z" fill="white"/>
<path d="M106.094 88.1614C106.228 88.3024 106.401 88.4001 106.592 88.4418C106.782 88.4836 106.98 88.4675 107.161 88.3956C107.342 88.3237 107.497 88.1993 107.607 88.0384C107.717 87.8776 107.776 87.6876 107.777 87.4929C107.776 87.2642 107.688 87.0443 107.531 86.8782C107.025 87.2747 106.545 87.7033 106.094 88.1614V88.1614Z" fill="#181E08"/>
<path d="M112.809 87.4928C112.815 87.7357 112.749 87.9749 112.619 88.1798C112.488 88.3847 112.299 88.5461 112.077 88.6433C111.854 88.7405 111.608 88.7691 111.369 88.7255C111.13 88.6819 110.909 88.568 110.735 88.3984C110.561 88.2289 110.442 88.0113 110.392 87.7735C110.342 87.5357 110.365 87.2885 110.456 87.0634C110.548 86.8384 110.704 86.6457 110.906 86.5101C111.107 86.3744 111.345 86.3019 111.588 86.3019C111.746 86.2998 111.903 86.329 112.05 86.3878C112.198 86.4465 112.332 86.5337 112.445 86.6443C112.559 86.7549 112.649 86.8868 112.712 87.0324C112.774 87.1779 112.807 87.3344 112.809 87.4928V87.4928Z" fill="white"/>
<path d="M110.881 88.1614C111.016 88.3013 111.19 88.3979 111.38 88.439C111.57 88.4801 111.769 88.4639 111.95 88.3923C112.131 88.3207 112.286 88.1971 112.397 88.0369C112.508 87.8768 112.568 87.6875 112.571 87.4929C112.567 87.2649 112.479 87.0464 112.325 86.8782C111.815 87.2727 111.333 87.7014 110.881 88.1614Z" fill="#181E08"/>
<path d="M117.596 87.4928C117.603 87.7357 117.536 87.9749 117.406 88.1798C117.275 88.3847 117.087 88.5461 116.864 88.6433C116.641 88.7405 116.395 88.7691 116.156 88.7255C115.917 88.6819 115.696 88.568 115.522 88.3984C115.348 88.2289 115.229 88.0113 115.179 87.7735C115.129 87.5357 115.152 87.2885 115.243 87.0634C115.335 86.8384 115.491 86.6457 115.693 86.5101C115.894 86.3744 116.132 86.3019 116.375 86.3019C116.533 86.2998 116.69 86.329 116.838 86.3878C116.985 86.4465 117.119 86.5337 117.232 86.6443C117.346 86.7549 117.436 86.8868 117.499 87.0324C117.561 87.1779 117.594 87.3344 117.596 87.4928Z" fill="white"/>
<path d="M115.667 88.1614C115.759 88.2558 115.869 88.331 115.99 88.3824C116.112 88.4339 116.242 88.4606 116.374 88.4611C116.502 88.4621 116.629 88.4378 116.748 88.3897C116.867 88.3416 116.975 88.2706 117.066 88.1807C117.158 88.0908 117.23 87.9838 117.28 87.8657C117.33 87.7477 117.356 87.621 117.357 87.4929C117.353 87.2649 117.266 87.0464 117.112 86.8782C116.603 87.2747 116.121 87.7033 115.667 88.1614Z" fill="#181E08"/>
<path d="M122.384 87.4928C122.39 87.7357 122.323 87.9749 122.193 88.1798C122.062 88.3847 121.874 88.5461 121.651 88.6433C121.428 88.7405 121.182 88.7691 120.943 88.7255C120.704 88.6819 120.483 88.568 120.309 88.3984C120.135 88.2289 120.016 88.0113 119.966 87.7735C119.917 87.5357 119.939 87.2885 120.03 87.0634C120.122 86.8384 120.278 86.6457 120.48 86.5101C120.681 86.3744 120.919 86.3019 121.162 86.3019C121.32 86.2998 121.477 86.329 121.625 86.3878C121.772 86.4465 121.906 86.5337 122.019 86.6443C122.133 86.7549 122.223 86.8868 122.286 87.0324C122.348 87.1779 122.382 87.3344 122.384 87.4928V87.4928Z" fill="white"/>
<path d="M120.463 88.1614C120.553 88.2563 120.661 88.3319 120.782 88.3834C120.902 88.4349 121.031 88.4614 121.162 88.4611C121.29 88.4621 121.417 88.4378 121.536 88.3897C121.655 88.3416 121.763 88.2706 121.854 88.1807C121.946 88.0908 122.018 87.9838 122.068 87.8657C122.118 87.7477 122.145 87.621 122.146 87.4929C122.141 87.2649 122.054 87.0464 121.9 86.8782C121.392 87.2727 120.912 87.7014 120.463 88.1614V88.1614Z" fill="#181E08"/>
<path d="M127.178 87.4929C127.186 87.7375 127.12 87.9789 126.99 88.186C126.859 88.3932 126.67 88.5567 126.446 88.6557C126.222 88.7547 125.974 88.7846 125.733 88.7416C125.492 88.6986 125.27 88.5846 125.094 88.4143C124.918 88.244 124.797 88.0251 124.746 87.7856C124.696 87.5461 124.718 87.297 124.809 87.0701C124.901 86.8432 125.059 86.6489 125.262 86.512C125.465 86.3752 125.704 86.302 125.949 86.3019C126.269 86.2977 126.579 86.4207 126.809 86.6438C127.039 86.867 127.172 87.1722 127.178 87.4929V87.4929Z" fill="white"/>
<path d="M125.25 88.1614C125.34 88.2563 125.448 88.3319 125.569 88.3834C125.689 88.4349 125.818 88.4614 125.949 88.4611C126.077 88.4621 126.204 88.4378 126.323 88.3897C126.442 88.3416 126.55 88.2706 126.642 88.1807C126.733 88.0908 126.806 87.9838 126.856 87.8657C126.906 87.7477 126.932 87.621 126.933 87.4929C126.928 87.2649 126.841 87.0464 126.687 86.8782C126.181 87.2747 125.701 87.7033 125.25 88.1614V88.1614Z" fill="#181E08"/>
<path d="M131.966 87.4928C131.974 87.7378 131.908 87.9795 131.777 88.1868C131.647 88.3942 131.457 88.5577 131.233 88.6565C131.008 88.7552 130.76 88.7847 130.518 88.741C130.277 88.6974 130.055 88.5827 129.879 88.4116C129.704 88.2405 129.583 88.0209 129.533 87.7809C129.484 87.5409 129.507 87.2915 129.6 87.0647C129.693 86.838 129.851 86.6442 130.055 86.5082C130.259 86.3723 130.499 86.3004 130.744 86.3019C130.903 86.2998 131.06 86.329 131.207 86.3878C131.354 86.4465 131.488 86.5337 131.602 86.6443C131.715 86.7549 131.806 86.8868 131.868 87.0324C131.931 87.1779 131.964 87.3344 131.966 87.4928V87.4928Z" fill="white"/>
<path d="M130.037 88.1614C130.171 88.3024 130.345 88.4001 130.535 88.4418C130.725 88.4836 130.923 88.4675 131.104 88.3956C131.285 88.3237 131.441 88.1993 131.55 88.0384C131.66 87.8776 131.719 87.6876 131.72 87.4929C131.719 87.2642 131.631 87.0443 131.474 86.8782C130.968 87.2747 130.488 87.7033 130.037 88.1614Z" fill="#181E08"/>
<path d="M136.752 87.4928C136.758 87.7357 136.691 87.9749 136.561 88.1798C136.43 88.3847 136.242 88.5461 136.019 88.6433C135.797 88.7405 135.55 88.7691 135.311 88.7255C135.072 88.6819 134.851 88.568 134.678 88.3984C134.504 88.2289 134.384 88.0113 134.334 87.7735C134.285 87.5357 134.307 87.2885 134.399 87.0634C134.49 86.8384 134.647 86.6457 134.848 86.5101C135.05 86.3744 135.287 86.3019 135.53 86.3019C135.688 86.2998 135.846 86.329 135.993 86.3878C136.14 86.4465 136.274 86.5337 136.388 86.6443C136.501 86.7549 136.592 86.8868 136.654 87.0324C136.716 87.1779 136.75 87.3344 136.752 87.4928Z" fill="white"/>
<path d="M134.823 88.1614C134.959 88.3013 135.132 88.3979 135.323 88.439C135.513 88.4801 135.711 88.4639 135.892 88.3923C136.073 88.3207 136.229 88.1971 136.339 88.0369C136.45 87.8768 136.511 87.6875 136.514 87.4929C136.509 87.2649 136.422 87.0464 136.268 86.8782C135.758 87.2727 135.275 87.7014 134.823 88.1614Z" fill="#181E08"/>
<path d="M141.54 87.4928C141.546 87.7357 141.479 87.9749 141.349 88.1798C141.218 88.3847 141.03 88.5461 140.807 88.6433C140.585 88.7405 140.338 88.7691 140.099 88.7255C139.86 88.6819 139.64 88.568 139.466 88.3984C139.292 88.2289 139.172 88.0113 139.123 87.7735C139.073 87.5357 139.095 87.2885 139.187 87.0634C139.278 86.8384 139.435 86.6457 139.636 86.5101C139.838 86.3744 140.075 86.3019 140.318 86.3019C140.476 86.2998 140.634 86.329 140.781 86.3878C140.928 86.4465 141.062 86.5337 141.176 86.6443C141.289 86.7549 141.38 86.8868 141.442 87.0324C141.505 87.1779 141.538 87.3344 141.54 87.4928V87.4928Z" fill="white"/>
<path d="M139.588 88.1614C139.68 88.2558 139.79 88.331 139.911 88.3824C140.033 88.4339 140.163 88.4606 140.295 88.4611C140.423 88.4621 140.55 88.4378 140.669 88.3897C140.788 88.3416 140.896 88.2706 140.987 88.1807C141.078 88.0908 141.151 87.9838 141.201 87.8657C141.251 87.7477 141.277 87.621 141.278 87.4929C141.274 87.2649 141.186 87.0464 141.032 86.8782C140.524 87.2747 140.042 87.7033 139.588 88.1614V88.1614Z" fill="#181E08"/>
<path d="M146.327 87.4928C146.333 87.7357 146.267 87.9749 146.136 88.1798C146.006 88.3847 145.817 88.5461 145.594 88.6433C145.372 88.7405 145.125 88.7691 144.886 88.7255C144.647 88.6819 144.427 88.568 144.253 88.3984C144.079 88.2289 143.959 88.0113 143.91 87.7735C143.86 87.5357 143.882 87.2885 143.974 87.0634C144.065 86.8384 144.222 86.6457 144.423 86.5101C144.625 86.3744 144.862 86.3019 145.105 86.3019C145.264 86.2998 145.421 86.329 145.568 86.3878C145.715 86.4465 145.849 86.5337 145.963 86.6443C146.076 86.7549 146.167 86.8868 146.229 87.0324C146.292 87.1779 146.325 87.3344 146.327 87.4928V87.4928Z" fill="white"/>
<path d="M144.405 88.1614C144.495 88.2563 144.604 88.3319 144.724 88.3834C144.844 88.4349 144.974 88.4614 145.105 88.4611C145.233 88.4621 145.36 88.4378 145.479 88.3897C145.597 88.3416 145.705 88.2706 145.797 88.1807C145.888 88.0908 145.961 87.9838 146.011 87.8657C146.061 87.7477 146.087 87.621 146.088 87.4929C146.084 87.2649 145.996 87.0464 145.842 86.8782C145.335 87.2727 144.854 87.7014 144.405 88.1614V88.1614Z" fill="#181E08"/>
<path d="M151.114 87.4929C151.121 87.7375 151.056 87.9789 150.925 88.186C150.795 88.3932 150.606 88.5567 150.382 88.6557C150.158 88.7547 149.91 88.7846 149.669 88.7416C149.428 88.6986 149.205 88.5846 149.029 88.4143C148.853 88.244 148.733 88.0251 148.682 87.7856C148.631 87.5461 148.653 87.297 148.745 87.0701C148.837 86.8432 148.994 86.6489 149.197 86.512C149.4 86.3752 149.639 86.302 149.884 86.3019C150.205 86.2977 150.514 86.4207 150.744 86.6438C150.975 86.867 151.107 87.1722 151.114 87.4929V87.4929Z" fill="white"/>
<path d="M149.193 88.1614C149.283 88.2563 149.392 88.3319 149.512 88.3834C149.632 88.4349 149.762 88.4614 149.893 88.4611C150.021 88.4621 150.148 88.4378 150.267 88.3897C150.385 88.3416 150.494 88.2706 150.585 88.1807C150.676 88.0908 150.749 87.9838 150.799 87.8657C150.849 87.7477 150.875 87.621 150.876 87.4929C150.872 87.2649 150.784 87.0464 150.63 86.8782C150.124 87.2747 149.644 87.7033 149.193 88.1614V88.1614Z" fill="#181E08"/>
<path d="M94.5687 73.9693H57.5247C56.7201 73.9694 55.9475 73.654 55.3728 73.0909C54.7982 72.5277 54.4673 71.7616 54.4512 70.9572V53.8682C54.4512 42.2118 64.1405 32.7222 76.0506 32.7222C87.9606 32.7222 97.6576 42.2118 97.6576 53.8682V70.9572C97.6415 71.7643 97.3085 72.5327 96.7305 73.0963C96.1525 73.6599 95.376 73.9735 94.5687 73.9693ZM60.5983 67.9758H91.4875V53.8682C91.4875 49.7721 89.8603 45.8437 86.9639 42.9472C84.0674 40.0508 80.139 38.4236 76.0429 38.4236C71.9467 38.4236 68.0183 40.0508 65.1219 42.9472C62.2255 45.8437 60.5983 49.7721 60.5983 53.8682V67.9758Z" fill="white" stroke="#181E08" stroke-linecap="round" stroke-linejoin="round"/>
<path d="M99.317 65.7324H52.1533V104.751H99.317V65.7324Z" fill="#34A853" stroke="#181E08" stroke-linecap="round" stroke-linejoin="round"/>
<path d="M80.6454 81.9377C80.594 80.6097 80.0304 79.3533 79.0727 78.4319C78.115 77.5105 76.8377 76.9958 75.5087 76.9958C74.1798 76.9958 72.9025 77.5105 71.9448 78.4319C70.9871 79.3533 70.4234 80.6097 70.3721 81.9377C70.3762 82.851 70.6296 83.7459 71.1049 84.5258C71.5802 85.3058 72.2593 85.9412 73.0691 86.3636L72.2085 95.2231H78.809L77.9484 86.3636C78.7582 85.9412 79.4373 85.3058 79.9126 84.5258C80.3879 83.7459 80.6413 82.851 80.6454 81.9377V81.9377Z" fill="#181E08" stroke="#181E08" stroke-linecap="round" stroke-linejoin="round"/>
</g>
</svg>
