<svg width="150" height="150" viewBox="0 0 150 150" fill="none" xmlns="http://www.w3.org/2000/svg">
<mask id="mask0_210_1425" style="mask-type:alpha" maskUnits="userSpaceOnUse" x="0" y="0" width="150" height="150">
<circle cx="75" cy="75" r="75" fill="#C4C4C4"/>
</mask>
<g mask="url(#mask0_210_1425)">
<path opacity="0.1" d="M173.139 90.3929C173.499 87.9338 173.704 85.4542 173.752 82.9692C174.124 62.6985 165.638 46.8226 153.917 31.091C141.809 14.8422 125.077 -1.15641 105.245 -7.03576C100.562 -8.40197 95.6413 -9.14208 90.7848 -8.58606C72.4507 -6.5215 54.6463 7.82701 32.4128 12.2799C10.1792 16.7328 -9.3425 29.1814 -13.1944 53.3898C-14.8281 63.6404 -14.3253 73.6461 -12.2989 83.7895C-9.7873 96.2567 -10.1211 109.974 -5.31319 122.13C-0.25965 134.901 10.5939 147.028 22.7476 153.394C36.6125 160.655 52.171 156.118 67.0105 156.618C78.7182 157.004 90.1895 160.47 101.903 160.56C119.846 160.706 139.743 153.365 150.203 138.279C160.343 123.621 170.557 108.115 173.139 90.3929Z" fill="#FF383C"/>
<path opacity="0.1" d="M156.512 26.0408C155.201 23.9292 153.758 21.9025 152.191 19.9729C139.399 4.24385 122.674 -2.41305 103.569 -6.87207C83.8352 -11.4773 60.7297 -12.9083 41.7829 -4.60698C37.3238 -2.63047 33.0862 -0.02147 29.734 3.53626C17.0567 16.941 12.7083 39.3902 -1.40793 57.1354C-15.5242 74.8805 -22.4104 96.9858 -9.73696 117.969C-4.3727 126.855 2.46604 134.176 10.5579 140.619C20.5195 148.525 29.1134 159.222 40.6286 165.409C52.7288 171.908 68.8453 174.173 82.2381 171.196C97.5166 167.8 106.478 154.297 118.14 145.106C127.334 137.848 138.336 133.097 147.345 125.61C161.148 114.146 171.616 95.7011 169.877 77.4263C168.169 59.6851 165.971 41.2481 156.512 26.0408Z" fill="#FF383C"/>
<g opacity="0.5">
<path d="M-25.9653 105.636C-24.1055 104.931 -21.0535 101.809 -20.8147 101.556C-19.0859 103.365 -17.2421 105.054 -15.2955 106.61C-14.1681 107.516 -13.0065 108.401 -11.7966 109.27C-12.3964 108.957 -12.9265 108.678 -13.0031 108.651C-15.2098 107.795 -19.9434 107.482 -21.5966 109.613C-21.8662 109.973 -22.0584 110.389 -22.1605 110.832C-22.2627 111.275 -22.2723 111.736 -22.1889 112.183C-22.1054 112.631 -21.9308 113.055 -21.6766 113.428C-21.4223 113.801 -21.0943 114.113 -20.7141 114.345C-19.1487 115.389 -16.8752 115.057 -15.229 114.427C-13.5828 113.797 -10.8977 111.187 -10.2011 110.484C-9.74648 110.814 -9.29868 111.151 -8.84415 111.473C-6.65517 113.044 -4.45947 114.6 -2.35327 116.193C-1.61155 116.754 -0.904143 117.338 -0.189914 117.914C-0.720003 117.635 -1.16633 117.405 -1.23595 117.378C-3.44275 116.522 -8.17632 116.209 -9.82947 118.34C-10.092 118.702 -10.2777 119.117 -10.3744 119.558C-10.4712 119.999 -10.4768 120.456 -10.391 120.9C-10.3052 121.344 -10.1299 121.764 -9.87637 122.133C-9.62288 122.503 -9.29693 122.813 -8.91974 123.044C-7.3544 124.08 -5.08091 123.748 -3.43463 123.125C-1.78835 122.502 0.637013 120.132 1.46343 119.306C2.16431 119.918 2.86519 120.53 3.56636 121.163C4.00862 121.6 4.46414 121.994 4.88602 122.46L6.15802 123.814C6.93188 124.697 7.74075 125.607 8.47316 126.498C8.99404 127.112 9.47299 127.699 9.95906 128.299C9.25877 127.73 7.769 126.65 7.6433 126.574C5.54965 125.388 0.944271 124.329 -0.989645 126.185C-1.30258 126.501 -1.54744 126.882 -1.70824 127.302C-1.86904 127.722 -1.94217 128.173 -1.92287 128.624C-1.90356 129.076 -1.79226 129.518 -1.5962 129.922C-1.40015 130.326 -1.12377 130.684 -0.785063 130.97C0.617283 132.237 2.90965 132.27 4.62882 131.91C6.52739 131.505 9.87893 129.015 10.297 128.702C11.0931 129.692 11.8682 130.667 12.5804 131.593C14.5051 134.082 16.1075 136.297 17.3439 138.087L18.883 137.223C17.5701 135.412 15.863 133.134 13.7919 130.576C12.9817 129.565 12.0946 128.506 11.1795 127.425C12.027 126.371 12.8117 125.265 13.5295 124.113C15.4155 124.801 19.2697 124.612 19.7679 124.591C19.9103 125.875 20.0313 127.117 20.1308 128.302C20.3949 131.378 20.5429 134.077 20.6351 136.241L22.3047 135.296C22.1728 133.269 21.9802 130.856 21.6868 128.159C21.551 126.853 21.3796 125.469 21.1867 124.043C21.6694 123.893 25.6335 122.638 27.0832 121.317C28.4099 120.12 29.7684 118.214 29.6309 116.28C29.613 115.828 29.5032 115.385 29.3085 114.979C29.1138 114.574 28.8387 114.215 28.5009 113.927C28.1632 113.638 27.7705 113.426 27.3483 113.305C26.9261 113.183 26.4838 113.154 26.0504 113.221C23.4603 113.692 21.4653 118.143 21.1454 120.549C21.1474 120.692 21.0859 122.257 21.0788 123.244C21.0015 122.666 20.9245 122.102 20.8401 121.503C20.6645 120.32 20.4613 119.143 20.25 117.881C20.1262 117.278 20 116.665 19.8714 116.043C19.759 115.423 19.5633 114.79 19.4091 114.156C19.0288 112.689 18.5655 111.23 18.0744 109.765C19.0764 109.615 22.6267 108.988 24.1161 108.031C25.6054 107.074 27.2231 105.38 27.3698 103.47C27.418 103.02 27.3741 102.565 27.2411 102.134C27.1081 101.703 26.8889 101.306 26.5977 100.968C26.3065 100.629 25.9497 100.358 25.5506 100.171C25.1514 99.984 24.7187 99.8857 24.2805 99.8822C21.6498 99.9185 19.027 104.035 18.3533 106.395C18.3138 106.546 18.0122 108.272 17.8661 109.225C17.5631 108.343 17.2672 107.468 16.9297 106.594C15.9668 104.063 14.9071 101.534 13.8682 99.0042L12.929 96.6804C13.2883 96.6254 17.5242 96.0024 19.1917 94.9074C20.6738 93.9294 22.2987 92.2562 22.4385 90.3463C22.4972 89.8928 22.4616 89.4315 22.3342 88.9931C22.2067 88.5547 21.9902 88.1493 21.6992 87.8038C21.4082 87.4583 21.0492 87.1807 20.6463 86.9894C20.2433 86.7981 19.8055 86.6975 19.3621 86.6944C16.7245 86.7308 14.1017 90.8474 13.4345 93.1719C13.3815 93.3513 12.9589 95.8368 12.8777 96.4739C12.1617 94.7687 11.5218 93.0554 10.9304 91.3485C10.1217 89.0411 9.4577 86.6824 8.94255 84.2872C9.10869 84.2849 13.5381 83.6306 15.2467 82.5065C16.7219 81.5286 18.3467 79.8554 18.4935 77.9454C18.5427 77.4964 18.4999 77.0415 18.3677 76.6105C18.2355 76.1795 18.017 75.7819 17.7263 75.4435C17.4356 75.1052 17.0793 74.8337 16.6804 74.6466C16.2815 74.4596 15.8491 74.3612 15.4111 74.3579C12.7735 74.3943 10.1507 78.5109 9.48342 80.8354C9.4306 81.0219 8.96907 83.7009 8.9204 84.1875C8.91842 84.0446 8.84732 83.9098 8.81765 83.7673C8.3651 81.3488 8.12033 78.8939 8.08621 76.4313C8.06745 75.0739 8.09103 73.773 8.15663 72.5072C8.99431 72.4957 12.8138 72.3 14.464 71.4626C16.1143 70.6251 17.8254 69.1794 18.1802 67.2951C18.2757 66.8543 18.2806 66.3975 18.1944 65.9544C18.1082 65.5113 17.9329 65.0918 17.6799 64.7228C17.4268 64.3539 17.1015 64.0437 16.7252 63.8125C16.3488 63.5813 15.9297 63.4342 15.4949 63.3805C12.8673 63.1453 9.82422 66.9103 8.90658 69.1526C8.8598 69.2747 8.48325 70.5876 8.24676 71.5127C8.28742 70.9476 8.31384 70.3541 8.36173 69.8104C8.53417 67.7571 8.82004 65.8952 9.08108 64.2409C9.2343 63.3026 9.39582 62.4643 9.55112 61.6761C10.3616 61.2005 13.5823 59.2623 14.6487 57.7612C15.715 56.2601 16.6208 54.161 16.0826 52.2962C15.9714 51.8566 15.7714 51.4462 15.4957 51.0918C15.22 50.7375 14.8749 50.4472 14.483 50.2401C14.0911 50.0329 13.6613 49.9136 13.2217 49.8899C12.7822 49.8662 12.3428 49.9387 11.9324 50.1025C9.49554 51.1366 8.48159 55.9313 8.66736 58.3512C8.67032 58.5655 9.30367 61.8082 9.34481 61.779L9.39327 61.7784C9.23056 62.5309 9.06172 63.3408 8.89406 64.2363C8.59831 65.884 8.25013 67.7467 8.05693 69.8003C7.79789 72.0097 7.66445 74.233 7.65729 76.4587C7.63854 78.9533 7.83517 81.4448 8.24483 83.9038C8.24483 83.9038 8.24562 83.961 8.24601 83.9895C7.89 83.2799 6.82452 81.3366 6.72572 81.2022C5.3137 79.2351 1.55446 76.2715 -0.947406 77.1135C-1.35911 77.2662 -1.73505 77.5065 -2.05084 77.8188C-2.36664 78.1312 -2.61523 78.5086 -2.78051 78.9266C-2.94579 79.3446 -3.02406 79.7938 -3.01024 80.2452C-2.99643 80.6966 -2.89084 81.1401 -2.70031 81.5468C-1.94903 83.3015 0.107738 84.3235 1.83766 84.7427C3.76904 85.2091 7.98085 84.3434 8.31919 84.2744C8.79267 86.765 9.42804 89.22 10.221 91.6227C10.6769 93.0456 11.1737 94.4251 11.6638 95.8189C11.337 95.216 11.0388 94.6842 10.9894 94.6134C9.57734 92.6464 5.81809 89.6827 3.31623 90.5248C2.90452 90.6774 2.52858 90.9177 2.21279 91.2301C1.897 91.5424 1.6484 91.9198 1.48312 92.3378C1.31784 92.7558 1.23958 93.2051 1.25339 93.6565C1.26721 94.1079 1.3728 94.5513 1.56332 94.958C2.3147 96.7198 4.37137 97.7347 6.09437 98.154C7.81737 98.5732 11.4435 97.9157 12.3964 97.7239C12.6046 98.257 12.7989 98.7903 13.007 99.3233C13.991 101.882 14.9886 104.427 15.8821 106.951C16.1991 107.84 16.4814 108.729 16.7706 109.619C16.4794 109.087 16.224 108.64 16.1815 108.576C14.7695 106.609 11.0033 103.646 8.5084 104.488C8.09608 104.64 7.71941 104.879 7.40285 105.191C7.0863 105.503 6.83694 105.881 6.67098 106.299C6.50501 106.717 6.42616 107.166 6.43952 107.618C6.45289 108.07 6.55818 108.514 6.74857 108.921C7.50677 110.676 9.55662 111.698 11.2865 112.117C13.0165 112.536 16.2833 111.934 17.4159 111.718C17.6848 112.636 17.9537 113.554 18.1462 114.459C18.2794 115.079 18.4537 115.669 18.5593 116.297C18.6649 116.924 18.7842 117.537 18.8964 118.143C19.0651 119.327 19.2551 120.546 19.3958 121.709C19.4969 122.515 19.5837 123.286 19.6705 124.056C19.3605 123.167 18.7273 121.44 18.6561 121.298C17.6459 119.439 16.1947 117.876 14.4388 116.754C14.3333 116.542 14.21 116.341 14.0704 116.152C13.814 115.785 13.4857 115.478 13.1068 115.25C12.728 115.023 12.3071 114.88 11.8714 114.832C11.4358 114.783 10.9953 114.83 10.5784 114.968C10.1615 115.107 9.77767 115.335 9.45177 115.637C7.53883 117.507 8.26361 122.356 9.27716 124.55C9.34125 124.678 10.142 126.003 10.6935 126.831C10.3136 126.394 9.98909 125.962 9.56058 125.518C8.78662 124.628 7.98528 123.76 7.13458 122.829L5.83528 121.503C5.41369 121.059 4.90932 120.637 4.43234 120.194C3.33143 119.194 2.16871 118.231 0.978687 117.297C1.73034 116.572 4.39622 114.07 5.06561 112.403C5.73501 110.736 6.23629 108.428 5.33369 106.747C5.13857 106.341 4.86255 105.982 4.52371 105.693C4.18487 105.405 3.79087 105.194 3.36753 105.073C2.94418 104.953 2.50105 104.926 2.06719 104.995C1.63333 105.064 1.21852 105.227 0.849962 105.472C-1.31665 107.024 -1.31808 111.934 -0.635052 114.261C-0.59154 114.403 0.0816172 116.016 0.467594 116.89C-0.232494 116.335 -0.932682 115.773 -1.71565 115.234C-3.86991 113.67 -6.10656 112.157 -8.32243 110.644L-10.3498 109.243C-10.0763 108.996 -6.88313 106.065 -6.07824 104.182C-5.36721 102.521 -4.90757 100.207 -5.81017 98.5257C-6.00984 98.1277 -6.28801 97.7773 -6.62678 97.4969C-6.96554 97.2165 -7.35738 97.0124 -7.77707 96.8977C-8.19677 96.783 -8.63501 96.7603 -9.06358 96.831C-9.49214 96.9016 -9.90155 97.0642 -10.2654 97.3081C-12.4321 98.853 -12.4335 103.769 -11.7436 106.089C-11.6928 106.26 -10.719 108.584 -10.4479 109.159C-11.9302 108.121 -13.399 107.056 -14.8124 105.989C-16.7225 104.526 -18.5393 102.938 -20.2513 101.233C-20.1283 101.117 -16.7706 98.0697 -15.952 96.1718C-15.2409 94.5184 -14.7745 92.1967 -15.6771 90.5156C-15.8767 90.113 -16.1562 89.7581 -16.4973 89.4742C-16.8384 89.1902 -17.2335 88.9834 -17.657 88.8673C-18.0805 88.7511 -18.5228 88.7282 -18.9553 88.8001C-19.3877 88.8719 -19.8006 89.0368 -20.1671 89.2842C-22.3337 90.8362 -22.3352 95.7455 -21.6453 98.0656C-21.5943 98.2506 -20.542 100.744 -20.3213 101.177L-20.63 100.888C-22.3027 99.1308 -23.8191 97.2217 -25.1611 95.1843C-25.9174 94.0657 -26.5766 92.96 -27.201 91.8682C-26.5156 91.3656 -23.4318 89.0363 -22.5058 87.4014C-21.5798 85.7665 -20.9175 83.5849 -21.6344 81.8155C-21.7892 81.3922 -22.0286 81.0072 -22.337 80.6856C-22.6454 80.3639 -23.0159 80.1128 -23.4245 79.9486C-23.833 79.7844 -24.2703 79.7107 -24.7081 79.7324C-25.1458 79.7541 -25.5742 79.8707 -25.9653 80.0745C-28.2808 81.3714 -28.802 86.2521 -28.3674 88.64C-28.3656 88.7686 -27.9669 90.0637 -27.6424 90.9953C-27.9124 90.4988 -28.2033 89.9883 -28.4523 89.5058C-29.4052 87.6968 -30.1701 85.9566 -30.8348 84.458C-31.2 83.5841 -31.5503 82.7885 -31.8098 82.0418C-31.3923 81.1928 -29.7437 77.7257 -29.6584 75.8809C-29.5731 74.036 -30.0067 71.7196 -31.4086 70.4884C-31.7349 70.1864 -32.1191 69.9586 -32.5363 69.8198C-32.9534 69.681 -33.3941 69.6343 -33.8296 69.6828C-34.2652 69.7312 -34.686 69.8738 -35.0645 70.1011C-35.4431 70.3285 -35.771 70.6356 -36.0269 71.0024C-37.5053 73.2523 -35.7871 77.8306 -34.3343 79.7471C-34.2073 79.9168 -31.9591 82.2654 -31.9389 82.2222L-31.9396 82.1722C-31.6736 82.8832 -31.3788 83.6723 -31.0487 84.5109C-30.4111 86.0528 -29.6808 87.7935 -28.7691 89.6317C-27.7985 91.6243 -26.7152 93.5564 -25.5248 95.418C-24.2079 97.5091 -22.714 99.4756 -21.0606 101.295L-20.9974 101.358C-21.6952 100.968 -23.5994 99.9648 -23.7873 99.8959C-25.9941 99.0403 -30.7277 98.727 -32.3739 100.858C-32.6366 101.219 -32.8227 101.633 -32.9199 102.073C-33.0171 102.513 -33.0233 102.97 -32.9382 103.413C-32.853 103.856 -32.6784 104.276 -32.4256 104.645C-32.1728 105.014 -31.8476 105.324 -31.4712 105.554C-29.8848 106.612 -27.6184 106.266 -25.9653 105.636Z" fill="#181E08"/>
<path d="M7.80562 72.1191C7.85408 72.1184 7.06891 68.9136 6.99692 68.7145C6.1692 66.4392 3.26961 62.549 0.633265 62.6783C0.197137 62.714 -0.226807 62.8438 -0.611196 63.0591C-0.995586 63.2744 -1.33188 63.5706 -1.59837 63.9285C-1.86486 64.2863 -2.05562 64.698 -2.15834 65.1368C-2.26107 65.5756 -2.27347 66.0319 -2.19475 66.4761C-1.91225 68.3802 -0.180578 69.9284 1.36855 70.7931C3.18291 71.8113 7.79869 72.1192 7.80562 72.1191Z" fill="#181E08"/>
<path d="M180.576 102.783C178.698 102.13 175.561 99.0932 175.308 98.8466C173.632 100.705 171.835 102.444 169.93 104.052C168.829 104.989 167.692 105.905 166.541 106.807C167.125 106.477 167.654 106.184 167.73 106.154C169.912 105.238 174.635 104.794 176.34 106.879C176.612 107.233 176.809 107.642 176.918 108.08C177.027 108.517 177.045 108.974 176.971 109.419C176.898 109.865 176.734 110.289 176.491 110.664C176.248 111.04 175.931 111.358 175.56 111.599C174.024 112.685 171.749 112.416 170.079 111.832C168.41 111.247 165.66 108.713 164.951 108.029L163.615 109.055C161.471 110.686 159.326 112.302 157.264 113.952C156.538 114.534 155.84 115.137 155.142 115.732C155.665 115.439 156.104 115.197 156.18 115.168C158.356 114.252 163.086 113.808 164.79 115.892C165.062 116.247 165.26 116.657 165.368 117.095C165.477 117.533 165.496 117.99 165.422 118.436C165.349 118.882 165.185 119.307 164.942 119.683C164.699 120.059 164.381 120.378 164.011 120.619C162.474 121.698 160.193 121.429 158.53 120.852C156.867 120.275 154.377 117.972 153.528 117.17C152.844 117.801 152.161 118.432 151.477 119.084C151.04 119.533 150.596 119.94 150.187 120.417C149.778 120.894 149.362 121.343 148.96 121.806C148.204 122.71 147.427 123.642 146.713 124.553C146.216 125.181 145.747 125.781 145.277 126.395C145.996 125.806 147.421 124.686 147.551 124.605C149.57 123.363 154.186 122.177 156.163 123.979C156.485 124.286 156.74 124.66 156.913 125.075C157.085 125.491 157.17 125.939 157.164 126.391C157.157 126.843 157.058 127.288 156.873 127.698C156.688 128.107 156.422 128.472 156.091 128.768C154.724 130.073 152.441 130.169 150.705 129.857C148.803 129.504 145.384 127.108 144.957 126.806C144.182 127.818 143.441 128.814 142.748 129.76C140.9 132.301 139.352 134.559 138.166 136.383L136.596 135.561C137.859 133.715 139.509 131.391 141.502 128.776C142.284 127.744 143.141 126.66 144.033 125.554C143.156 124.523 142.339 123.439 141.586 122.308C139.719 123.048 135.861 122.966 135.363 122.959C135.263 124.246 135.169 125.491 135.103 126.678C134.924 129.76 134.85 132.463 134.825 134.628L133.123 133.73C133.199 131.699 133.331 129.282 133.543 126.578C133.65 125.269 133.783 123.881 133.929 122.45C133.443 122.313 129.452 121.168 127.96 119.888C126.607 118.728 125.197 116.861 125.281 114.923C125.285 114.471 125.382 114.025 125.565 113.615C125.747 113.204 126.012 112.838 126.341 112.54C126.67 112.242 127.056 112.019 127.475 111.886C127.893 111.753 128.334 111.712 128.769 111.766C131.378 112.166 133.488 116.56 133.874 118.956C133.876 119.099 133.981 120.662 134.015 121.648C134.083 121.068 134.138 120.503 134.213 119.902C134.349 118.714 134.519 117.532 134.703 116.265C134.805 115.656 134.914 115.04 135.023 114.417C135.132 113.794 135.297 113.155 135.433 112.517C135.78 111.041 136.196 109.57 136.646 108.092C135.64 107.97 132.074 107.44 130.559 106.525C129.044 105.61 127.38 103.961 127.187 102.055C127.126 101.608 127.156 101.152 127.276 100.717C127.396 100.283 127.604 99.8794 127.885 99.5331C128.166 99.1869 128.515 98.9056 128.909 98.7077C129.302 98.5097 129.732 98.3994 130.169 98.3839C132.807 98.3475 135.543 102.39 136.274 104.731C136.325 104.88 136.667 106.598 136.839 107.546C137.118 106.656 137.397 105.773 137.703 104.89C138.602 102.333 139.585 99.776 140.553 97.2186C140.854 96.4356 141.141 95.6527 141.428 94.8698C141.074 94.8247 136.816 94.319 135.119 93.2705C133.617 92.3337 131.947 90.7061 131.747 88.8009C131.686 88.3533 131.716 87.8975 131.836 87.4629C131.956 87.0284 132.164 86.6249 132.445 86.2787C132.726 85.9324 133.075 85.6512 133.469 85.4532C133.862 85.2552 134.292 85.1449 134.729 85.1295C137.367 85.0931 140.103 89.1356 140.841 91.4407C140.892 91.6187 141.39 94.0914 141.482 94.7261C142.15 93.0019 142.742 91.2715 143.293 89.5489C144.041 87.2202 144.642 84.844 145.092 82.4352C144.926 82.4375 140.487 81.9057 138.748 80.8293C137.24 79.8926 135.569 78.2649 135.37 76.3597C135.309 75.9118 135.341 75.4557 135.462 75.0212C135.583 74.5867 135.791 74.1833 136.073 73.8372C136.354 73.4911 136.703 73.21 137.097 73.0121C137.491 72.8141 137.921 72.7038 138.359 72.6883C140.997 72.6518 143.725 76.6945 144.463 78.9996C144.521 79.1846 145.05 81.8499 145.112 82.3349C145.11 82.192 145.184 82.0552 145.203 81.9121C145.592 79.4824 145.769 77.0214 145.731 74.5587C145.713 73.2013 145.653 71.9015 145.553 70.638C144.715 70.6496 140.891 70.5595 139.226 69.7679C137.56 68.9763 135.796 67.5786 135.396 65.7047C135.287 65.2666 135.269 64.8098 135.342 64.3641C135.416 63.9184 135.579 63.4937 135.822 63.1176C136.065 62.7415 136.382 62.4225 136.752 62.1813C137.123 61.94 137.538 61.782 137.972 61.7174C140.592 61.4097 143.738 65.0893 144.71 67.3054C144.767 67.4261 145.173 68.7282 145.435 69.6464C145.379 69.0826 145.336 68.4901 145.273 67.9479C145.044 65.9002 144.714 64.0468 144.4 62.4004C144.221 61.4667 144.036 60.6332 143.859 59.8496C143.043 59.3964 139.77 57.5479 138.663 56.0769C137.555 54.6058 136.592 52.5325 137.071 50.6536C137.171 50.2137 137.359 49.8004 137.623 49.4405C137.888 49.0806 138.223 48.7822 138.606 48.5646C138.99 48.3471 139.413 48.2152 139.85 48.1776C140.286 48.14 140.725 48.1976 141.139 48.3465C143.603 49.3129 144.749 54.0777 144.63 56.5018C144.633 56.7161 144.09 59.9751 144.048 59.9471L143.999 59.9477C144.183 60.6955 144.381 61.5003 144.573 62.3909C144.914 64.0297 145.314 65.8822 145.564 67.9296C145.881 70.1312 146.074 72.3499 146.14 74.5745C146.23 77.0674 146.105 79.5634 145.765 82.0329L145.767 82.1187C146.103 81.3994 147.114 79.4275 147.209 79.2904C148.566 77.285 152.242 74.2187 154.767 74.9913C155.183 75.1316 155.566 75.3608 155.891 75.6641C156.216 75.9675 156.475 76.338 156.652 76.7516C156.829 77.1652 156.92 77.6125 156.918 78.0645C156.916 78.5164 156.822 78.9628 156.641 79.3744C155.939 81.1492 153.911 82.2277 152.2 82.6943C150.282 83.2139 146.041 82.465 145.701 82.4054C145.297 84.9081 144.729 87.3797 144.003 89.8035C143.587 91.2384 143.128 92.6311 142.677 94.0379C142.987 93.4262 143.27 92.8864 143.318 92.8143C144.675 90.8089 148.358 87.7425 150.875 88.5152C151.291 88.6557 151.675 88.8849 152 89.1881C152.325 89.4913 152.584 89.8615 152.762 90.2749C152.939 90.6882 153.03 91.1354 153.03 91.5874C153.029 92.0393 152.936 92.486 152.757 92.8982C152.047 94.6802 150.026 95.7515 148.309 96.2182C146.591 96.685 142.955 96.1279 141.997 95.9624L141.438 97.578C140.518 100.163 139.591 102.734 138.775 105.282C138.482 106.18 138.225 107.076 137.967 107.973C138.243 107.434 138.48 106.98 138.52 106.915C139.877 104.91 143.56 101.843 146.077 102.616C146.493 102.757 146.876 102.987 147.2 103.291C147.524 103.594 147.783 103.965 147.96 104.378C148.137 104.791 148.227 105.238 148.226 105.69C148.225 106.141 148.131 106.587 147.952 106.999C147.243 108.774 145.222 109.853 143.504 110.319C141.786 110.786 138.504 110.274 137.366 110.09C137.13 111.015 136.886 111.94 136.712 112.85C136.596 113.473 136.438 114.068 136.357 114.698C136.275 115.328 136.166 115.944 136.071 116.553C135.928 117.741 135.778 118.965 135.67 120.132C135.584 120.94 135.519 121.713 135.453 122.486C135.739 121.589 136.331 119.844 136.391 119.7C137.335 117.792 138.739 116.166 140.466 114.978C140.561 114.76 140.679 114.555 140.818 114.365C141.064 113.992 141.383 113.676 141.755 113.438C142.126 113.2 142.543 113.046 142.976 112.986C143.41 112.925 143.851 112.959 144.271 113.086C144.691 113.213 145.08 113.43 145.414 113.723C147.378 115.539 146.794 120.407 145.835 122.628C145.774 122.758 145.01 124.104 144.482 124.948C144.849 124.5 145.203 124.059 145.585 123.603C146.334 122.693 147.104 121.803 147.936 120.848L149.191 119.488C149.607 119.032 150.1 118.596 150.557 118.14C151.63 117.11 152.766 116.115 153.936 115.149C153.165 114.445 150.431 112.017 149.716 110.369C149.001 108.721 148.429 106.428 149.285 104.723C149.473 104.314 149.742 103.951 150.074 103.657C150.407 103.363 150.796 103.145 151.217 103.016C151.637 102.888 152.079 102.852 152.513 102.911C152.948 102.971 153.365 103.124 153.739 103.361C155.948 104.852 156.078 109.76 155.459 112.105C155.42 112.248 154.791 113.879 154.43 114.763C155.114 114.189 155.833 113.608 156.566 113.047C158.683 111.424 160.871 109.851 163.051 108.277L165.032 106.821C164.758 106.581 161.479 103.74 160.622 101.879C159.865 100.239 159.342 97.9381 160.198 96.2327C160.385 95.8239 160.654 95.4607 160.987 95.1668C161.321 94.8728 161.71 94.6548 162.13 94.5269C162.551 94.399 162.993 94.3641 163.427 94.4246C163.862 94.4851 164.279 94.6394 164.652 94.8777C166.854 96.3622 166.991 101.277 166.372 103.615C166.326 103.787 165.417 106.136 165.155 106.719C166.615 105.641 168.054 104.535 169.43 103.43C171.301 101.916 173.073 100.278 174.736 98.5258C174.609 98.4132 171.176 95.4593 170.298 93.5849C169.542 91.9518 169.018 89.6437 169.874 87.9383C170.062 87.5306 170.331 87.1683 170.663 86.8751C170.996 86.5818 171.384 86.3642 171.804 86.2364C172.223 86.1086 172.664 86.0734 173.098 86.1332C173.532 86.193 173.949 86.3464 174.321 86.5835C176.53 88.075 176.667 92.9824 176.042 95.3206C175.996 95.5071 175.02 98.0288 174.811 98.4676L175.112 98.1704C176.731 96.3653 178.192 94.4153 179.476 92.3433C180.202 91.2043 180.83 90.0808 181.424 88.9721C180.725 88.4887 177.578 86.2455 176.614 84.6367C175.65 83.0278 174.921 80.8655 175.589 79.077C175.732 78.6496 175.96 78.2581 176.26 77.9281C176.559 77.598 176.923 77.3368 177.327 77.1613C177.73 76.9859 178.166 76.9002 178.604 76.9098C179.042 76.9194 179.473 77.0241 179.87 77.2171C182.22 78.4494 182.876 83.3139 182.508 85.7129C182.509 85.8415 182.14 87.1472 181.848 88.0873C182.104 87.5836 182.381 87.0652 182.623 86.576C183.526 84.7413 184.236 82.9807 184.859 81.4643C185.206 80.5805 185.528 79.7758 185.773 79.022C185.326 78.185 183.589 74.7646 183.446 72.923C183.303 71.0813 183.631 68.7686 185.019 67.4989C185.337 67.188 185.714 66.9496 186.128 66.7994C186.541 66.6491 186.98 66.5902 187.417 66.6267C187.853 66.6631 188.278 66.794 188.663 67.0108C189.047 67.2276 189.384 67.5255 189.65 67.8851C191.19 70.0934 189.599 74.7174 188.206 76.6731C188.084 76.8463 185.894 79.2562 185.873 79.2136L185.872 79.1636C185.633 79.8815 185.36 80.6785 185.046 81.526C184.459 83.0848 183.777 84.845 182.909 86.7078C181.998 88.7261 180.974 90.6873 179.84 92.5813C178.586 94.7112 177.147 96.7187 175.54 98.579L175.478 98.6441C176.165 98.2345 178.041 97.1796 178.227 97.1055C180.402 96.1894 185.132 95.7453 186.837 97.8298C187.109 98.1839 187.306 98.5931 187.415 99.0308C187.523 99.4686 187.542 99.925 187.468 100.37C187.395 100.816 187.231 101.24 186.988 101.615C186.745 101.991 186.427 102.309 186.057 102.55C184.521 103.65 182.239 103.367 180.576 102.783Z" fill="#181E08"/>
<path d="M145.893 70.2119C145.844 70.2125 146.541 66.9872 146.6 66.7863C147.365 64.4891 150.163 60.5201 152.795 60.5767C153.232 60.5992 153.66 60.7165 154.051 60.9208C154.441 61.1251 154.786 61.4119 155.063 61.7625C155.339 62.1132 155.541 62.5198 155.656 62.9561C155.77 63.3924 155.794 63.8485 155.727 64.2949C155.504 66.206 153.809 67.8015 152.291 68.7086C150.505 69.7766 145.893 70.2119 145.893 70.2119Z" fill="#181E08"/>
</g>
</g>
<path d="M131.893 80.8675C131.893 75.5907 139.086 69.3817 137.785 64.4918C136.43 59.4349 127.065 57.6848 124.506 53.2522C121.947 48.8197 125.042 39.7876 121.393 36.1378C117.743 32.488 108.782 35.6365 104.28 33.0333C99.7775 30.4301 98.1242 21.1077 93.0502 19.7533C88.1608 18.4517 81.9787 25.6458 76.676 25.6458C71.3733 25.6458 65.1912 18.4517 60.3018 19.7533C55.2453 21.1077 53.4953 30.474 49.0632 33.0333C44.6311 35.5925 35.5998 32.4968 31.9503 36.1466C28.3009 39.7964 31.4491 48.7582 28.8461 53.261C26.2431 57.7639 16.9216 59.4173 15.5673 64.4918C14.2395 69.3817 21.4592 75.5907 21.4592 80.8675C21.4592 86.1443 14.2658 92.3533 15.5673 97.2432C16.9216 102.3 26.2871 104.05 28.8461 108.483C31.4051 112.915 28.3097 121.947 31.9591 125.597C35.6086 129.247 44.5695 126.099 49.072 128.702C53.5745 131.305 55.2277 140.627 60.3018 141.982C65.1912 143.283 71.3733 136.089 76.676 136.089C81.9787 136.089 88.1608 143.283 93.0502 141.982C98.1066 140.627 99.8566 131.261 104.289 128.702C108.721 126.142 117.752 129.238 121.402 125.588C125.051 121.939 121.903 112.977 124.506 108.474C127.109 103.971 136.43 102.318 137.785 97.2432C139.112 92.3533 131.893 86.1443 131.893 80.8675Z" fill="#FF383C"/>
<path d="M59.9337 101.208L55.792 97.0666L72.3587 80.5L55.792 63.9333L59.9337 59.7916L76.5003 76.3583L93.067 59.7916L97.2087 63.9333L80.642 80.5L97.2087 97.0666L93.067 101.208L76.5003 84.6416L59.9337 101.208Z" fill="#E3E3E3"/>
</svg>
