<svg width="200" height="154" viewBox="0 0 200 154" fill="none" xmlns="http://www.w3.org/2000/svg">
<circle cx="101" cy="79" r="75" fill="#D9EFDE"/>
<path d="M53 54.9922L93.6533 23.5117C97.9786 20.1627 104.021 20.1627 108.347 23.5117L149 54.9922L101 92.1621L53 54.9922Z" fill="#181E08"/>
<rect x="83.4492" y="67.8228" width="36" height="36" rx="2" fill="white"/>
<rect x="1" y="-1" width="20" height="22" rx="9" transform="matrix(1 0 0 -1 90.4492 76.8228)" stroke="white" stroke-width="2"/>
<circle cx="101" cy="78.8228" r="3" fill="black"/>
<path d="M53.2189 54.8228L53 54.9922V54.8228H53.2189Z" fill="#34A853"/>
<path d="M148.781 54.8228L149 54.9922L108.347 86.4724C104.022 89.8219 97.9784 89.8219 93.6529 86.4724L53 54.9922V107.823C53 114.45 58.3726 119.823 65 119.823H137C143.627 119.823 149 114.45 149 107.823V54.9922V54.8228H148.781Z" fill="#34A853"/>
</svg>
